<svg xmlns="http://www.w3.org/2000/svg" xmlns:xlink="http://www.w3.org/1999/xlink" x="0px" y="0px" width="34.6px" height="34.6px" viewBox="0 0 34.6 34.6" style="enable-background:new 0 0 34.6 34.6;" xml:space="preserve">
<path style="fill-rule:evenodd;clip-rule:evenodd;fill:#F7941E;" class="st0" d="M20.5,21.2c-1.1,0-1.9,0.9-1.9,1.9v7.7c0,1.1,0.9,1.9,1.9,1.9c1.1,0,1.9-0.9,1.9-1.9v-7.7   C22.5,22.1,21.6,21.2,20.5,21.2z"></path>
<path style="fill-rule:evenodd;clip-rule:evenodd;fill:#F7941E;" class="st0" d="M14.1,21.2c-1.1,0-1.9,0.9-1.9,1.9v7.7c0,1.1,0.9,1.9,1.9,1.9s1.9-0.9,1.9-1.9v-7.7 C16,22.1,15.2,21.2,14.1,21.2z"></path>
<path style="fill-rule:evenodd;clip-rule:evenodd;fill:#F7941E;" class="st0" d="M25,12.2H9.6v11.6c0,1.4,1.2,2.6,2.6,2.6h10.3c1.4,0,2.6-1.2,2.6-2.6L25,12.2L25,12.2z"></path>
<path style="fill-rule:evenodd;clip-rule:evenodd;fill:#F7941E;" class="st0" d="M28.2,12.2c-1.1,0-1.9,0.9-1.9,1.9v7.7c0,1.1,0.9,1.9,1.9,1.9c1.1,0,1.9-0.9,1.9-1.9v-7.7   C30.1,13.1,29.3,12.2,28.2,12.2z"></path>
<path style="fill-rule:evenodd;clip-rule:evenodd;fill:#F7941E;" class="st0" d="M13.6,5.5c-0.2,0-0.4-0.1-0.5-0.3l-1.5-2.3c-0.2-0.3-0.1-0.7,0.2-0.9s0.7-0.1,0.9,0.2l1.5,2.3   c0.2,0.3,0.1,0.7-0.2,0.9C13.8,5.5,13.7,5.5,13.6,5.5z"></path>
<path style="fill-rule:evenodd;clip-rule:evenodd;fill:#F7941E;" class="st0" d="M21,5.5c-0.1,0-0.2,0-0.3-0.1c-0.3-0.1-0.4-0.6-0.2-0.9l1.5-2.3c0.2-0.3,0.6-0.4,0.9-0.2    c0.3,0.2,0.4,0.6,0.2,0.9l-1.5,2.3C21.4,5.4,21.2,5.5,21,5.5z"></path>
<path style="fill-rule:evenodd;clip-rule:evenodd;fill:#F7941E;" class="st0" d="M17.3,3.2c-4.2,0-7.7,3.5-7.7,7.7H25C25,6.6,21.5,3.2,17.3,3.2z"></path>
<circle style="fill-rule:evenodd;clip-rule:evenodd;fill:#ffffff;" cx="14.1" cy="7.7" r="0.6"></circle>
<circle style="fill-rule:evenodd;clip-rule:evenodd;fill:#ffffff;" cx="20.5" cy="7.7" r="0.6"></circle>
<path style="fill-rule:evenodd;clip-rule:evenodd;fill:#F7941E;" class="st0" d="M6.4,12.2c-1.1,0-1.9,0.9-1.9,1.9v7.7c0,1.1,0.9,1.9,1.9,1.9s1.9-0.9,1.9-1.9v-7.7C8.3,13.1,7.4,12.2,6.4,12.2z  "></path>
</svg>