<?xml version="1.0" encoding="UTF-8"?>
<!-- Generator: Adobe Illustrator 26.4.1, SVG Export Plug-In . SVG Version: 6.00 Build 0)  -->
<svg xmlns="http://www.w3.org/2000/svg" xmlns:xlink="http://www.w3.org/1999/xlink" version="1.1" id="Layer_1" x="0px" y="0px" width="65.4px" height="65.4px" viewBox="0 0 65.4 65.4" style="enable-background:new 0 0 65.4 65.4;" xml:space="preserve">
<style type="text/css">
	.st0{fill:#82C341;}
	.st1{opacity:0.1;enable-background:new    ;}
	.st2{opacity:0.2;fill:#FFFFFF;enable-background:new    ;}
	.st3{fill:#FFFFFF;}
	.st4{fill:url(#SVGID_1_);}
</style>
<g>
	<path class="st0" d="M39.3,40.6c-2.2,0-3.9,1.8-3.9,3.9v15.8c0,2.2,1.8,3.9,3.9,3.9c2.2,0,3.9-1.8,3.9-3.9V44.6   C43.3,42.4,41.5,40.6,39.3,40.6z"></path>
	<path class="st1" d="M39.3,63.7c-2.2,0-3.9-1.8-3.9-3.9v0.7c0,2.2,1.8,3.9,3.9,3.9c2.2,0,3.9-1.8,3.9-3.9v-0.7   C43.3,61.9,41.5,63.7,39.3,63.7z"></path>
	<path class="st0" d="M26.1,40.6c-2.2,0-3.9,1.8-3.9,3.9v15.8c0,2.2,1.8,3.9,3.9,3.9s3.9-1.8,3.9-3.9V44.6   C30.1,42.4,28.3,40.6,26.1,40.6z"></path>
	<path class="st1" d="M26.1,63.7c-2.2,0-3.9-1.8-3.9-3.9v0.7c0,2.2,1.8,3.9,3.9,3.9s3.9-1.8,3.9-3.9v-0.7   C30.1,61.9,28.3,63.7,26.1,63.7z"></path>
	<path class="st0" d="M48.5,22.2H16.9v23.7c0,2.9,2.4,5.3,5.3,5.3h21.1c2.9,0,5.3-2.4,5.3-5.3V22.2z"></path>
	<path class="st0" d="M55.1,22.2c-2.2,0-3.9,1.8-3.9,3.9v15.8c0,2.2,1.8,3.9,3.9,3.9c2.2,0,3.9-1.8,3.9-3.9V26.1   C59,24,57.3,22.2,55.1,22.2z"></path>
	<path class="st0" d="M25.2,8.5c-0.4,0-0.9-0.2-1.1-0.6l-3-4.8c-0.4-0.6-0.2-1.4,0.4-1.8c0.6-0.4,1.4-0.2,1.8,0.4l3,4.8   c0.4,0.6,0.2,1.4-0.4,1.8C25.6,8.5,25.4,8.5,25.2,8.5z"></path>
	<path class="st0" d="M40.3,8.5c-0.2,0-0.5-0.1-0.7-0.2C39,8,38.8,7.1,39.2,6.5l3-4.8c0.4-0.6,1.2-0.8,1.8-0.4   c0.6,0.4,0.8,1.2,0.4,1.8l-3,4.8C41.2,8.3,40.7,8.5,40.3,8.5z"></path>
	<path class="st0" d="M32.7,3.8c-8.7,0-15.8,7.1-15.8,15.8h31.6C48.5,10.8,41.4,3.8,32.7,3.8z"></path>
	<rect x="16.9" y="22.2" class="st2" width="31.6" height="0.7"></rect>
	<path class="st1" d="M43.3,50.5H22.2c-2.9,0-5.3-2.4-5.3-5.3v0.7c0,2.9,2.4,5.3,5.3,5.3h21.1c2.9,0,5.3-2.4,5.3-5.3v-0.7   C48.5,48.1,46.2,50.5,43.3,50.5z"></path>
	<path class="st2" d="M55.1,22.2c-2.2,0-3.9,1.8-3.9,3.9v0.7c0-2.2,1.8-3.9,3.9-3.9c2.2,0,3.9,1.8,3.9,3.9v-0.7   C59,24,57.3,22.2,55.1,22.2z"></path>
	<path class="st1" d="M55.1,45.2c-2.2,0-3.9-1.8-3.9-3.9v0.7c0,2.2,1.8,3.9,3.9,3.9c2.2,0,3.9-1.8,3.9-3.9v-0.7   C59,43.5,57.3,45.2,55.1,45.2z"></path>
	<path class="st2" d="M32.7,4.4c6.6,0,12.3,3.8,14.7,9.5c-2.3-6-8-10.1-14.7-10.1S20.2,7.9,18,13.9C20.4,8.3,26.1,4.4,32.7,4.4z"></path>
	<circle class="st3" cx="26.1" cy="13" r="1.3"></circle>
	<circle class="st3" cx="39.3" cy="13" r="1.3"></circle>
	<path class="st1" d="M17,18.9c0,0.2,0,0.4,0,0.7h31.6c0-0.2,0-0.4,0-0.7H17z"></path>
	<path class="st0" d="M10.3,22.2c-2.2,0-3.9,1.8-3.9,3.9v15.8c0,2.2,1.8,3.9,3.9,3.9s3.9-1.8,3.9-3.9V26.1   C14.3,24,12.5,22.2,10.3,22.2z"></path>
	<path class="st2" d="M10.3,22.2c-2.2,0-3.9,1.8-3.9,3.9v0.7c0-2.2,1.8-3.9,3.9-3.9s3.9,1.8,3.9,3.9v-0.7   C14.3,24,12.5,22.2,10.3,22.2z"></path>
	<path class="st1" d="M10.3,45.2c-2.2,0-3.9-1.8-3.9-3.9v0.7c0,2.2,1.8,3.9,3.9,3.9s3.9-1.8,3.9-3.9v-0.7   C14.3,43.5,12.5,45.2,10.3,45.2z"></path>
	
		<linearGradient id="SVGID_1_" gradientUnits="userSpaceOnUse" x1="8.5455" y1="44.7841" x2="58.5129" y2="21.4839" gradientTransform="matrix(1 0 0 -1 0 65.4488)">
		<stop offset="0" style="stop-color:#FFFFFF;stop-opacity:0.2"></stop>
		<stop offset="1" style="stop-color:#FFFFFF;stop-opacity:0"></stop>
	</linearGradient>
	<path class="st4" d="M16.9,45.9c0,2.9,2.4,5.3,5.3,5.3v9.2c0,2.2,1.8,3.9,3.9,3.9s3.9-1.8,3.9-3.9v-9.2h5.3v9.2   c0,2.2,1.8,3.9,3.9,3.9c2.2,0,3.9-1.8,3.9-3.9v-9.2c2.9,0,5.3-2.4,5.3-5.3V22.2H16.9V45.9z M55.1,22.2c-2.2,0-3.9,1.8-3.9,3.9v15.8   c0,2.2,1.8,3.9,3.9,3.9c2.2,0,3.9-1.8,3.9-3.9V26.1C59,24,57.3,22.2,55.1,22.2z M42.1,6.8l2.3-3.7c0.4-0.6,0.2-1.4-0.4-1.8   c-0.6-0.4-1.4-0.2-1.8,0.4l-2.3,3.7c-2.1-1.1-4.5-1.7-7.1-1.7c-2.6,0-5,0.6-7.1,1.7l-2.3-3.7c-0.4-0.6-1.2-0.8-1.8-0.4   c-0.6,0.4-0.8,1.2-0.4,1.8l2.3,3.7c-3.9,2.9-6.4,7.5-6.4,12.7h31.6C48.5,14.3,46,9.7,42.1,6.8z M10.3,22.2c-2.2,0-3.9,1.8-3.9,3.9   v15.8c0,2.2,1.8,3.9,3.9,3.9s3.9-1.8,3.9-3.9V26.1C14.3,24,12.5,22.2,10.3,22.2z"></path>
</g>
</svg>
