<?xml version="1.0" encoding="UTF-8"?>
<!-- Generator: Adobe Illustrator 26.4.1, SVG Export Plug-In . SVG Version: 6.00 Build 0)  -->
<svg xmlns="http://www.w3.org/2000/svg" xmlns:xlink="http://www.w3.org/1999/xlink" version="1.1" id="Layer_1" x="0px" y="0px" width="65.4px" height="65.4px" viewBox="0 0 65.4 65.4" style="enable-background:new 0 0 65.4 65.4;" xml:space="preserve">
<style type="text/css">
	.st0{fill:#DD0031;}
	.st1{fill:#C3002F;}
	.st2{fill:#FFFFFF;}
</style>
<g>
	<polygon class="st0" points="32.7,1.6 32.7,1.6 32.7,1.6 3.7,11.9 8.1,50.3 32.7,63.9 32.7,63.9 32.7,63.9 57.3,50.3 61.7,11.9     "></polygon>
	<polygon class="st1" points="32.7,1.6 32.7,8.5 32.7,8.5 32.7,40 32.7,40 32.7,63.9 32.7,63.9 57.3,50.3 61.7,11.9  "></polygon>
	<path class="st2" d="M32.7,8.5L14.6,49.1l0,0h6.8l0,0L25,40h15.4l3.6,9.1l0,0h6.8l0,0L32.7,8.5L32.7,8.5L32.7,8.5L32.7,8.5   L32.7,8.5z M38,34.4H27.4l5.3-12.7L38,34.4z"></path>
</g>
</svg>
