<?xml version="1.0" encoding="utf-8"?>
<!-- Generator: Adobe Illustrator 26.4.1, SVG Export Plug-In . SVG Version: 6.00 Build 0)  -->
<svg version="1.1" id="Layer_1" xmlns="http://www.w3.org/2000/svg" xmlns:xlink="http://www.w3.org/1999/xlink" x="0px" y="0px"
	 width="63.3px" height="62.1px" viewBox="0 0 63.3 62.1" style="enable-background:new 0 0 63.3 62.1;" xml:space="preserve">
<style type="text/css">
	.st0{fill:none;stroke:#000000;stroke-width:2;stroke-miterlimit:10;}
</style>
<g id="coffee_x5F_cup">
	<path class="st0" d="M46.6,48.2c1.5,0.6,3,1.1,4.5,1.1c5.5,0,10.4-4.9,10.4-10.4c0-5.7-4.5-10.4-10-10.6l0,0H6.5
		c-2.6,0-4.7,1.9-4.7,4.3v0.2c0,11.1,7.2,20.4,17.2,23.6H4.2c-1.3,0-2.3,1.1-2.3,2.3c0,1.3,1.1,2.3,2.3,2.3h49.4
		c1.3,0,2.3-1.1,2.3-2.3c0-1.3-1.1-2.3-2.3-2.3H34.9C39.3,55,43.4,52,46.6,48.2z M51.9,32.8L51.9,32.8c3.4,0.4,5.7,3.8,4.9,7.4
		c-0.6,2.6-3,4.3-5.5,4.3c-0.6,0-1.5,0-2.1-0.2C50.8,40.7,51.9,36.9,51.9,32.8z"/>
	<path class="st0" d="M17.6,18.6c-3.2,1.1-1.7,6,1.3,4.9c3.6-1.3,4.9-4.9,4-8.5c-0.4-1.7-1.5-3.4-2.3-5.1c-0.4-0.9-1.5-3-0.2-3.8
		c2.8-1.7,0.2-6.2-2.6-4.5c-3,2.1-3.6,5.7-2.6,8.9C15.7,11.6,20,17.9,17.6,18.6z"/>
	<path class="st0" d="M31.7,20.5c-3.2,1.1-1.7,6,1.3,4.9c3.6-1.3,4.9-4.9,4-8.5c-0.4-1.7-1.5-3.4-2.3-5.1c-0.4-0.9-1.5-3-0.2-3.8
		c2.8-1.7,0.2-6.2-2.6-4.5c-3,1.9-3.6,5.5-2.6,8.7C29.7,13.5,34,19.6,31.7,20.5z"/>
</g>
</svg>
