<svg xmlns="http://www.w3.org/2000/svg" xmlns:xlink="http://www.w3.org/1999/xlink" xmlns:a="http://ns.adobe.com/AdobeSVGViewerExtensions/3.0/" x="0px" y="0px" width="32.583px" height="32.583px" viewBox="0 0 32.583 32.583" enable-background="new 0 0 32.583 32.583" xml:space="preserve">
<path style="fill-rule:evenodd;clip-rule:evenodd;fill:#F7941E;" d="M31.352,15.606c-0.199-0.228-2.978-3.704-3.467-4.292c-0.488-0.588-0.73-0.484-1.029-0.441  c-0.303,0.043-3.818,0.635-4.226,0.702c-0.408,0.071-0.664,0.232-0.413,0.583c0.223,0.313,2.532,3.59,3.045,4.311l-9.186,2.201  L8.763,6.458c-0.289-0.432-0.351-0.583-1.015-0.55C7.084,5.936,2.015,6.358,1.654,6.391c-0.36,0.028-0.759,0.19-0.398,1.043 c0.36,0.854,6.118,13.26,6.279,13.621c0.161,0.36,0.579,0.949,1.556,0.711c1.001-0.242,4.472-1.148,6.369-1.646 c1.001,1.816,3.045,5.497,3.424,6.023c0.503,0.707,0.854,0.588,1.627,0.351c0.607-0.185,9.466-3.372,9.864-3.533    c0.398-0.166,0.645-0.28,0.375-0.683c-0.199-0.294-2.537-3.424-3.761-5.065c0.839-0.223,3.822-1.015,4.14-1.105 C31.504,16.014,31.556,15.834,31.352,15.606L31.352,15.606z M14.649,19.021c-0.109,0.024-5.255,1.257-5.53,1.318    c-0.275,0.062-0.275,0.033-0.308-0.062C8.777,20.183,2.693,7.629,2.607,7.473c-0.085-0.157-0.081-0.28,0-0.28   c0.081,0,4.861-0.427,5.027-0.436c0.171-0.009,0.152,0.029,0.213,0.133c0,0,6.744,11.638,6.858,11.842  C14.829,18.935,14.758,18.997,14.649,19.021z M29.161,21.743c0.081,0.128,0.166,0.213-0.095,0.303  c-0.256,0.095-8.712,2.945-8.873,3.016c-0.166,0.071-0.294,0.095-0.503-0.213c-0.209-0.308-2.959-5.065-2.959-5.065l8.954-2.329 c0.223-0.071,0.294-0.119,0.436,0.104C26.258,17.788,29.08,21.615,29.161,21.743z M29.735,15.383   c-0.199,0.043-3.491,0.858-3.491,0.858l-2.689-3.69c-0.076-0.109-0.138-0.213,0.052-0.237c0.19-0.024,3.244-0.578,3.381-0.607   c0.137-0.033,0.256-0.071,0.427,0.161c0.171,0.232,2.495,3.177,2.585,3.291C30.086,15.269,29.934,15.336,29.735,15.383  L29.735,15.383z"></path>
</svg>