<?xml version="1.0" encoding="utf-8"?>
<!-- Generator: Adobe Illustrator 26.4.1, SVG Export Plug-In . SVG Version: 6.00 Build 0)  -->
<svg version="1.1" id="Layer_1" xmlns="http://www.w3.org/2000/svg" xmlns:xlink="http://www.w3.org/1999/xlink" x="0px" y="0px"
	 width="32px" height="32px" viewBox="0 0 32 32" style="enable-background:new 0 0 32 32;" xml:space="preserve">
<style type="text/css">
	.st0{fill:#F7941E;}
</style>
<path class="st0" d="M16,3.9L4.4,8.2l2.1,15.7l9.6,5.3l9.6-5.3l2.1-15.7L16,3.9z M16,6.1l9.4,3.4l-1.7,13.1L16,26.9l-7.7-4.3
	L6.6,9.5L16,6.1z M16,8l-6,14h2l1.3-3h5.4l1.3,3h2L16,8z M16,12.6L16,12.6l0.7,1.8l1.1,2.6h-3.7l1.1-2.6L16,12.6L16,12.6z"/>
</svg>
