<svg xmlns="http://www.w3.org/2000/svg" xmlns:xlink="http://www.w3.org/1999/xlink" xmlns:a="http://ns.adobe.com/AdobeSVGViewerExtensions/3.0/" x="0px" y="0px" width="32px" height="32px" viewBox="0 0 32 32" enable-background="new 0 0 32 32" xml:space="preserve">
<g>
    <path fill="#F7941E" d="M20.152,9.422c-1.387-3.982,2.73-8.233,6.13-8.368c2.014,1.029,3.759,3.759,3.669,7.428        c-0.268,4.564-3.58,8.457-7.159,12.082C22.613,16.179,21.674,13.36,20.152,9.422L20.152,9.422z"></path>
    <path fill="#F7941E" d="M12.187,30.945c-0.582-4.43,1.298-8.233,3.087-10.515c0.85-1.074,1.521-2.058,2.058-2.998      c0.984,0.403,3.535,1.745,4.967,3.893C22.076,24.412,19.75,30.095,12.187,30.945L12.187,30.945z"></path>
    <path fill="#F7941E" d="M9.324,14.076C3.283,12.465,1.806,7.274,2.075,3.829C7.937,1.502,14.201,3.874,17.87,8.796     c2.551,3.445,4.161,7.875,4.475,11.768C20.6,18.327,18.407,17.029,15.588,16C13.619,15.284,11.829,14.837,9.324,14.076      L9.324,14.076z"></path>
</g>
</svg>