<svg xmlns="http://www.w3.org/2000/svg" xmlns:xlink="http://www.w3.org/1999/xlink" x="0px" y="0px" width="24px" height="24px" viewBox="0 0 24 24" style="enable-background:new 0 0 24 24;" xml:space="preserve">
<path style="fill:#F7941E;" d="M19.5,8.2v-3c0-0.2-0.1-0.4-0.2-0.5l-4.5-4.5C14.6,0.1,14.4,0,14.2,0h-12C1,0,0,1,0,2.2v19.5	C0,23,1,24,2.2,24h5.2v-1.5H2.2c-0.4,0-0.8-0.3-0.8-0.8V2.2c0-0.4,0.3-0.8,0.8-0.8h11.2v3C13.5,5.3,14.2,6,15,6h3v2.2H19.5z"></path>
<path style="fill:#F7941E;" d="M14.9,14h-3.4v-3.8H9.8v9.5h1.7v-3.8h3.4v3.8h1.7v-9.5h-1.7V14z M21.7,14.9h-2.5v-2.8h2.5V14.9z	 M21.7,10.2h-3.4c-0.5,0-0.8,0.4-0.8,0.9v8.5h1.7v-2.8h2.5c0.9,0,1.7-0.9,1.7-1.9v-2.8C23.4,11,22.6,10.2,21.7,10.2z M7.2,14.9H4.7	v-2.8h2.5V14.9z M7.2,10.2H3.8c-0.5,0-0.8,0.4-0.8,0.9v8.5h1.7v-2.8h2.5c0.9,0,1.7-0.9,1.7-1.9v-2.8C8.9,11,8.2,10.2,7.2,10.2z"></path>
</svg>