<svg xmlns="http://www.w3.org/2000/svg" xmlns:xlink="http://www.w3.org/1999/xlink" x="0px" y="0px" width="26.1px" height="29.3px" viewBox="0 0 26.1 29.3" style="enable-background:new 0 0 26.1 29.3;" xml:space="preserve">
<path style="fill-rule:evenodd;clip-rule:evenodd;fill:#F7941E;" d="M16.3,20.6c-4.5,0-5.5-2.1-5.5-3.8c0-0.2,0.1-0.3,0.3-0.3h1.4c0.2,0,0.3,0.1,0.3,0.3c0.2,1.4,0.8,2.1,3.6,2.1    c2.2,0,3.1-0.5,3.1-1.7c0-0.7-0.3-1.2-3.7-1.5c-2.8-0.3-4.6-0.9-4.6-3.2c0-2.1,1.8-3.4,4.7-3.4c3.3,0,5,1.1,5.2,3.6 c0,0.1,0,0.2-0.1,0.2C20.9,13,20.8,13,20.8,13h-1.4c-0.1,0-0.3-0.1-0.3-0.2c-0.3-1.4-1.1-1.9-3.2-1.9c-2.4,0-2.7,0.8-2.7,1.5    c0,0.8,0.3,1,3.6,1.4c3.2,0.4,4.7,1,4.7,3.2C21.4,19.3,19.6,20.6,16.3,20.6z"></path>
<path style="fill-rule:evenodd;clip-rule:evenodd;fill:#F7941E;" d="M13.1,28.8c-0.4,0-0.8-0.1-1.1-0.3l-3.5-2.1C8,26.2,8.2,26.1,8.4,26c0.7-0.2,0.8-0.3,1.6-0.7c0.1-0.1,0.2,0,0.3,0l2.7,1.6    c0.1,0.1,0.2,0.1,0.3,0l10.4-6c0.1-0.1,0.2-0.2,0.2-0.3v-12c0-0.1-0.1-0.2-0.2-0.3l-10.4-6c-0.1-0.1-0.2-0.1-0.3,0l-10.4,6  C2.4,8.4,2.3,8.6,2.3,8.7v12c0,0.1,0.1,0.2,0.2,0.3l2.8,1.6c1.5,0.8,2.5-0.1,2.5-1V9.7c0-0.2,0.1-0.3,0.3-0.3h1.3   c0.2,0,0.3,0.1,0.3,0.3v11.8c0,2.1-1.1,3.2-3.1,3.2c-0.6,0-1.1,0-2.4-0.6l-2.7-1.6c-0.7-0.4-1.1-1.1-1.1-1.9v-12    c0-0.8,0.4-1.5,1.1-1.9l10.4-6c0.7-0.4,1.5-0.4,2.2,0l10.4,6c0.7,0.4,1.1,1.1,1.1,1.9v12c0,0.8-0.4,1.5-1.1,1.9l-10.4,6 C13.8,28.7,13.4,28.8,13.1,28.8z"></path>
</svg>