<svg version="1.1" id="Layer_1" xmlns="http://www.w3.org/2000/svg" xmlns:xlink="http://www.w3.org/1999/xlink" x="0px" y="0px" width="27.5px" height="27.5px" viewBox="0 0 27.5 27.5" style="enable-background:new 0 0 27.5 27.5;" xml:space="preserve">
<path style="fill:#F7941E;" d="M1.1,10.3c-0.3,1.1-0.5,2.3-0.5,3.4c0,4.8,2.5,9,6.3,11.2c0.4,0.2,0.8-0.1,0.7-0.6L2.4,10.2 C2.2,9.6,1.3,9.7,1.1,10.3z M13.3,16.8l-3,8.8c-0.1,0.4,0.1,0.8,0.5,0.9c0.9,0.2,1.9,0.3,3,0.3c1.3,0,2.5-0.2,3.7-0.5   c0.4-0.1,0.6-0.5,0.5-0.9l-3.2-8.7C14.4,16.1,13.5,16.1,13.3,16.8z"></path>
<path style="fill:#F7941E;" d="M25.4,8.8c0,1.3-0.2,2.8-1,4.7L20.7,24c-0.1,0.3,0.3,0.7,0.6,0.4c3.4-2.4,5.6-6.3,5.6-10.7  c0-2.3-0.6-4.4-1.6-6.3C25.3,7.9,25.4,8.3,25.4,8.8L25.4,8.8z M22.4,4h0.2c-2.3-2.1-5.4-3.4-8.9-3.4c-4.6,0-8.6,2.3-11,5.9h0.8  c1.4,0,3.5-0.2,3.5-0.2c0.7,0,0.8,1,0.1,1.1H7.1C6.4,7.5,6,8.2,6.2,8.9l3.7,10.9c0.2,0.7,1.1,0.7,1.4,0l1.7-5.2 c0.3-0.9,0.3-1.9,0-2.8l-1-2.8c-0.3-0.8-1-1.4-1.9-1.5c-0.7,0-0.6-1.1,0.1-1.1c0,0,2.2,0.2,3.5,0.2c1.4,0,3.5-0.2,3.5-0.2   c0.7,0,0.8,1,0.1,1.1c-0.7,0.1-1.3,0.8-1,1.6l3.5,10.5c0.2,0.7,1.2,0.7,1.4,0l0.7-2.3c0.6-1.8,1-3.1,1-4.3c0-1.6-0.6-2.8-1.1-3.6    c-0.7-1.1-1.3-2-1.3-3.1C20.2,5.2,21.1,4,22.4,4z"></path>
</svg>