<svg xmlns="http://www.w3.org/2000/svg" xmlns:xlink="http://www.w3.org/1999/xlink" xmlns:a="http://ns.adobe.com/AdobeSVGViewerExtensions/3.0/" x="0px" y="0px" width="32px" height="32px" viewBox="0 0 32 32" enable-background="new 0 0 32 32" xml:space="preserve">
<path fill="#F7941E" d="M21.998,11.863l-0.124-0.074c-0.285-0.188-0.668-0.109-0.856,0.176c-0.084,0.127-0.118,0.28-0.096,0.43 c0.038,0.251-0.039,0.505-0.21,0.692c-0.268,0.281-0.638,0.441-1.025,0.445c-0.669-0.031-1.204-0.566-1.236-1.236   c-0.026-0.671,0.07-1.341,0.284-1.977c0.251-0.756,0.364-1.551,0.334-2.347c0-2.471-0.297-3.805-3.286-6.622    C15.541,1.11,15.15,1.113,14.91,1.356c-0.146,0.148-0.207,0.359-0.164,0.562c0.717,3.534-1.446,5.436-4.188,7.747   c-0.754,0.692-1.631,1.396-2.422,2.199c-3.731,3.719-4.51,6.993-4.51,9.081c0,3.707,1.371,8.389,7.895,9.884h0.148  c0.341,0.009,0.625-0.261,0.633-0.602c0.006-0.233-0.119-0.449-0.325-0.56c-2.335-2.162-2.792-3.249-2.792-4.398    c0.122-1.196,0.64-2.318,1.47-3.188c-0.019,0.509,0.114,1.013,0.383,1.446c0.596,0.749,1.515,1.167,2.471,1.124 c1.458,0,2.471-1.236,2.471-3.089c-0.111-0.941-0.586-1.801-1.322-2.397c-0.607-0.48-1.016-1.166-1.149-1.927   c0.003-0.493,0.103-0.98,0.297-1.433c0.307,0.524,0.73,0.972,1.236,1.31c0.309,0.222,0.766,0.519,1.297,0.853   c2.051,1.236,5.856,3.707,5.856,6.054c0,3.064-1.124,4.003-3.447,5.671c-0.28,0.195-0.348,0.58-0.153,0.86  c0.117,0.167,0.308,0.266,0.511,0.264h0.136c4.485-0.988,9.13-4.942,9.13-9.884S24.062,13.21,21.998,11.863z"></path>
</svg>