<?xml version="1.0" encoding="UTF-8"?>
<!-- Generator: Adobe Illustrator 26.4.1, SVG Export Plug-In . SVG Version: 6.00 Build 0)  -->
<svg xmlns="http://www.w3.org/2000/svg" xmlns:xlink="http://www.w3.org/1999/xlink" version="1.1" id="Layer_1" x="0px" y="0px" width="63.3px" height="62.1px" viewBox="0 0 63.3 62.1" style="enable-background:new 0 0 63.3 62.1;" xml:space="preserve">
<g>
	<path d="M60.6,22.4c-0.2-0.3-0.6-0.5-1-0.5h-6.8v0c0,0-0.1,0-0.1,0c-0.1,0-0.1,0-0.1,0c0,0-0.1,0-0.1,0c-0.1,0-0.1,0-0.2,0   c-0.1,0-0.1,0-0.2,0c-0.1,0-0.1,0-0.2,0c-0.2,0-0.4,0-0.6,0c-0.2,0-0.4,0-0.6,0c0,0-0.1,0-0.1,0c0,0,0,0-0.1,0v0H36.8v-0.1   c-0.1,0-0.2,0-0.3,0c-0.1,0-0.2,0-0.3,0c-0.1,0-0.2,0-0.3,0c-0.1,0-0.1,0-0.2,0c-0.2,0-0.4,0-0.5,0c-0.2,0-0.3,0-0.4,0   c-0.1,0-0.1,0-0.2,0c0,0,0,0,0,0v0H20.8v0c-0.1,0-0.2,0-0.3,0c0,0-0.1,0-0.1,0c0,0-0.1,0-0.1,0c-0.1,0-0.1,0-0.2,0   c-0.2,0-0.4,0.1-0.6,0.1c-0.1,0-0.2,0-0.3,0c-0.1,0-0.2,0-0.2,0c-0.2,0-0.3,0-0.5-0.1v0h-4.7l-3-15.1c-0.1-0.3-0.2-0.6-0.5-0.7   l-6-4C3.7,1.7,3,1.8,2.6,2.4C2.3,2.9,2.4,3.7,3,4l5.6,3.7l7.9,39.7c0.1,0.5,0.6,0.9,1.1,0.9h34c0.5,0,1-0.3,1.1-0.8l8-24   C61,23.1,60.9,22.7,60.6,22.4z M50.8,45.9H18.6l-4.3-21.7h43.8L50.8,45.9z"></path>
	<path d="M45.7,49.9c-2.4,0-4.5,1.7-5,4h-12c-0.6-2.8-3.4-4.5-6.2-3.9s-4.5,3.4-3.9,6.2c0.6,2.8,3.4,4.5,6.2,3.9   c1.9-0.4,3.4-1.9,3.9-3.9h12c0.7,2.8,3.4,4.5,6.2,3.8s4.5-3.4,3.8-6.2C50.1,51.6,48.1,49.9,45.7,49.9z M23.6,57.9   c-1.6-0.1-2.7-1.5-2.6-3.1c0.1-1.4,1.2-2.5,2.6-2.6c1.6-0.1,3,1,3.1,2.6c0.1,1.6-1,3-2.6,3.1C24,57.9,23.8,57.9,23.6,57.9z    M45.7,57.9c-1.6,0-2.9-1.3-2.9-2.8c0-1.6,1.3-2.9,2.8-2.9c1.6,0,2.9,1.3,2.9,2.8c0,0,0,0,0,0C48.5,56.7,47.2,57.9,45.7,57.9z"></path>
	<path d="M21.6,27.9c-0.6,0-1.2,0.5-1.2,1.2c0,0.6,0.5,1.2,1.2,1.2h28c0.6,0,1.2-0.5,1.2-1.2c0-0.6-0.5-1.2-1.2-1.2H21.6z"></path>
	<path d="M46,34H25.6l0,0c-0.6,0-1.2,0.5-1.2,1.2c0,0.6,0.5,1.2,1.2,1.2H46l0,0c0.6,0,1.2-0.5,1.2-1.2C47.2,34.5,46.6,34,46,34   L46,34z"></path>
	<path d="M41.7,39.9h-12c-0.6,0-1.2,0.5-1.2,1.2c0,0.6,0.5,1.2,1.2,1.2h12c0.6,0,1.2-0.5,1.2-1.2C42.8,40.4,42.3,39.9,41.7,39.9z"></path>
</g>
</svg>
