<?xml version="1.0" encoding="UTF-8"?>
<!-- Generator: Adobe Illustrator 26.4.1, SVG Export Plug-In . SVG Version: 6.00 Build 0)  -->
<svg xmlns="http://www.w3.org/2000/svg" xmlns:xlink="http://www.w3.org/1999/xlink" version="1.1" id="Layer_1" x="0px" y="0px" width="63.3px" height="62.1px" viewBox="0 0 63.3 62.1" style="enable-background:new 0 0 63.3 62.1;" xml:space="preserve">
<path d="M61.5,20.7L32.7,6.3C32,6,31.3,6,30.6,6.3L1.8,20.7c-0.5,0.2-0.7,0.7-0.6,1.1c0.1,0.3,0.3,0.5,0.6,0.6l4.4,2.2H5.9v24  c-0.3,0.2-0.6,0.5-0.8,0.8l-1.9,3.8c-0.5,0.9-0.1,2.1,0.9,2.5c0.3,0.1,0.5,0.2,0.8,0.2h3.8c1.1,0,1.9-0.8,1.9-1.9  c0-0.3-0.1-0.6-0.2-0.9l-1.9-3.8c-0.2-0.3-0.4-0.6-0.8-0.8V25.4l4.7,2.4v11.8c0,2.7,2,5.1,5.7,7c3.6,1.8,8.3,2.8,13.3,2.8  s9.8-1,13.3-2.8c3.7-1.8,5.7-4.3,5.7-7V27.8l10.8-5.4c0.5-0.2,0.7-0.7,0.6-1.1C62,21,61.8,20.7,61.5,20.7L61.5,20.7z M8.8,54H5  l1.9-3.8L8.8,54z M48.8,39.5c0,1.9-1.7,3.8-4.6,5.3c-3.3,1.7-7.7,2.6-12.5,2.6s-9.2-0.9-12.5-2.6c-3-1.5-4.6-3.4-4.6-5.3V28.7  l16.1,8.1c0.7,0.3,1.4,0.3,2.1,0l16.1-8V39.5z M31.9,35c-0.1,0-0.1,0-0.2,0c-0.1,0-0.1,0-0.2,0L4.4,21.5L31.4,8c0.1,0,0.1,0,0.2,0  c0.1,0,0.1,0,0.2,0l27.1,13.5L31.9,35z"></path>
</svg>
