<?xml version="1.0" encoding="utf-8"?>
<!-- Generator: Adobe Illustrator 26.4.1, SVG Export Plug-In . SVG Version: 6.00 Build 0)  -->
<svg version="1.1" id="Layer_1" xmlns="http://www.w3.org/2000/svg" xmlns:xlink="http://www.w3.org/1999/xlink" x="0px" y="0px"
	 width="1295.4px" height="78.4px" viewBox="0 0 1295.4 78.4" enable-background="new 0 0 1295.4 78.4" xml:space="preserve">
<image display="none" overflow="visible" width="1293" height="79" xlink:href="eminent-logo (1).png"  transform="matrix(1 0 0 1 0.8031 1.2598)">
</image>
<polygon fill="#333333" points="80,77.6 80,62.9 18.9,62.9 18.9,44.3 54.1,44.3 54.1,31.1 18.9,31.1 18.9,14.5 79.1,14.5 79.1,1.3 
	0.8,1.3 0.8,77.6 "/>
<path fill="#333333" d="M109,77.4V30.7c0-1,0-2.4,0-3.9s0-2.9-0.5-4.4c0.5,1,1,2.4,1.9,3.9c1,1.5,1.5,2.4,2.9,3.9l28.7,37.9h3.4
	l28.7-37.9c0.5-1,1.5-1.9,1.9-2.9c0.5-1.5,1.5-2.9,2.4-4.9c0,1.9-0.5,3.4-0.5,4.9c0,1.5,0,2.4,0,3.4v46.7h16.5V1.5h-14.1l-35,45.7
	l-36-45.7H95.4v75.9H109z"/>
<rect x="212.9" y="1.5" fill="#333333" width="17.5" height="75.9"/>
<path fill="#333333" d="M465.7,77V36.5c0-1.4,0-3.4,0-5.3s-0.5-4.3-0.5-6.7c1,1,1.9,1.9,2.9,2.9c1,1,1.9,1.9,3.4,3.4L526.9,77h12
	V1.8h-15.9v39.5c0,1,0,2.4,0,3.9c0,1.9,0.5,4.8,0.5,9.2c-1-1.4-2.4-2.9-3.9-3.9c-1.4-1.4-2.9-2.9-4.8-4.3l-53-44.3h-12V77H465.7z"/>
<path fill="#333333" d="M263.7,76.9V36.5c0-1.4,0-3.4,0-5.3s-0.5-4.3-0.5-6.7c1,1,1.9,1.9,2.9,2.9s1.9,1.9,3.4,3.4l55.2,46.1h12V2
	h-15.8v39.4c0,1,0,2.4,0,3.8c0,1.9,0.5,4.8,0.5,9.1c-1-1.4-2.4-2.9-3.8-3.8c-1.4-1.4-2.9-2.9-4.8-4.3L259.8,2h-12v74.9H263.7z"/>
<polygon fill="#333333" points="644,15.3 644,1.8 557.2,1.8 557.2,15.3 591.9,15.3 591.9,77 609.2,77 609.2,15.3 "/>
<path fill="#333333" d="M750.2,29.7l17.6-2.7v-7.2c0-6.8-1.4-11.3-4.1-14c-2.7-2.7-7.7-3.6-14.9-3.6h-44.8c-7.2,0-12.2,1.4-14.9,3.6
	c-2.7,2.7-3.6,7.2-3.6,14v39.3c0,6.8,1.4,11.3,3.6,14c2.7,2.3,7.7,3.6,14.9,3.6h44.8c7.2,0,12.2-1.4,14.9-3.6
	c2.7-2.3,4.1-7.2,4.1-14v-9l-17.6-3.6v15.8h-47V15.7h47C750.2,15.7,750.2,29.7,750.2,29.7z"/>
<path fill="#333333" d="M789.1,58.9c0,6.7,1.3,11.2,3.6,13.9c2.7,2.2,7.6,3.6,14.8,3.6h54.8c7.2,0,12.1-1.3,14.8-3.6
	c2.7-2.2,3.6-7.2,3.6-13.9V19.9c0-6.7-1.3-11.2-3.6-13.9c-2.7-2.7-7.6-3.6-14.8-3.6h-54.8c-7.2,0-12.1,1.3-14.8,3.6
	c-2.7,2.7-3.6,7.2-3.6,13.9C789.1,19.9,789.1,58.9,789.1,58.9z M806.6,15.8h57V63h-57V15.8z"/>
<path fill="#333333" d="M983.2,11.2c-7.4-6.5-18.5-9.7-32.4-9.7h-49.1v20.4c0.5,0,0.5,0,0.9,0s0.5,0,0.9,0c0.5,0,0.5,0,0.9,0
	s1.4,0,1.9,0s0.5,0,0.9,0c0.5,0,0.9,0,0.9,0c0.5,0,0.9,0,0.9,0c0.5,0,0.9,0,0.9,0c0.5,0,0.9,0,0.9,0c0.5,0,0.5,0,0.9,0
	c0.5,0,0.9,0,0.9,0c0.5,0,0.9,0,1.4,0s0.5,0,0.9,0c0.5,0,0.9,0,1.4,0h0.5c0.5,0,0.9,0,1.9,0v-6.9h31.5c8.3,0,14.8,1.9,19,6
	c4.2,4.2,6.5,9.7,6.5,17.6c0,8.8-2.8,15.3-7.9,19c-5.1,3.7-13.9,5.6-25.9,5.6h-23.2v-7.9c-0.5,0-0.5,0-0.9,0c-0.5,0-0.5,0-0.9,0
	c-0.5,0-0.5,0-0.9,0s-0.9,0-0.9,0c-0.5,0-0.9,0-1.4,0c-0.5,0-1.4,0-1.9,0s-0.9,0-0.9,0c-0.5,0-0.5,0-0.9,0c-0.5,0-0.5,0-0.9,0
	s-0.5,0-0.9,0s-0.5,0-0.9,0s-0.5,0-0.9,0c-0.5,0-0.9,0-1.4,0h-0.5H904h-0.5h-0.5c0,0,0,0-0.5,0c0,0,0,0-0.5,0c-0.9,0-1.4,0-1.9,0
	v22.2h44.9c7.9,0,13.9-0.5,19-1.4c5.1-0.9,9.3-2.3,12.5-4.6c5.6-3.2,9.7-7.9,12.5-13.4s4.6-12,4.6-19.5
	C994.8,26.9,991.1,17.6,983.2,11.2z"/>
<polygon fill="#333333" points="1087.9,77 1087.9,62.5 1027.7,62.5 1027.7,44.4 1062.5,44.4 1062.5,31.3 1027.7,31.3 1027.7,15 
	1087,15 1087,1.9 1010.5,1.9 1010.5,77 "/>
<path fill="#333333" d="M1172.1,16.2c0.9,0.9,1.8,2.3,1.8,4.5v9c0,2.3-0.5,3.6-1.8,4.5c-0.9,0.9-3.2,1.4-6.3,1.4h-39.3V14.8h39.3
	C1168.9,14.8,1171.2,15.3,1172.1,16.2z M1126.9,76.7v-28h16.7l30.3,28h24.8l-34.3-28h9.9c5.9,0,10.4-1.4,13.1-3.6
	c2.7-2.3,4.1-5.9,4.1-10.8V16.6c0-5-1.4-8.6-4.1-10.8c-2.7-2.3-6.8-3.6-13.1-3.6h-64.6v74.5H1126.9z"/>
<path fill="#333333" d="M1277.2,23.5l15.2-3.6v-1.3c0-6.3-1.3-10.3-4-12.5c-2.7-2.2-7.6-3.6-14.3-3.6H1232c-7.2,0-12.1,1.3-14.8,3.6
	c-2.7,2.7-3.6,7.2-3.6,13.9V28c0,6.7,1.3,11.2,3.6,13.9c2.7,2.7,7.6,3.6,14.8,3.6h46.1v17h-52.4v-9l-15.2,3.1v2.2
	c0,6.7,1.3,11.2,4,13.9c2.7,2.7,7.6,3.6,14.8,3.6h45.7c7.2,0,12.1-1.3,14.8-3.6c2.7-2.7,4-7.2,4-13.9V48.6c0-6.7-1.3-11.2-4-13.9
	c-2.7-2.7-7.6-3.6-14.8-3.6h-46.1V15.4h48.4V23.5z"/>
<g>
	<rect x="354.1" y="1.8" fill="#F7941E" width="79" height="14.5"/>
	<rect x="354.1" y="32.2" fill="#F7941E" width="79" height="14.5"/>
	<rect x="354.1" y="62.5" fill="#F7941E" width="79" height="14.5"/>
</g>
</svg>
