<?xml version="1.0" encoding="utf-8"?>
<!-- Generator: Adobe Illustrator 26.4.1, SVG Export Plug-In . SVG Version: 6.00 Build 0)  -->
<svg version="1.1" id="Layer_1" xmlns="http://www.w3.org/2000/svg" xmlns:xlink="http://www.w3.org/1999/xlink" x="0px" y="0px"
	 width="138.7px" height="41.7px" viewBox="0 0 138.7 41.7" enable-background="new 0 0 138.7 41.7" xml:space="preserve">
<path fill="#A7A9AC" d="M19.8,27.2c2.8,0,5-2.3,5-5c0-2.8-2.3-5-5-5c-2.8,0-5,2.3-5,5C14.8,24.9,17,27.2,19.8,27.2z"/>
<polygon points="10.5,31.5 10.5,23.2 4.9,23.2 4.9,37.1 18.8,37.1 18.8,31.5 "/>
<polygon points="29.2,12.8 29.2,21.1 34.8,21.1 34.8,7.2 20.9,7.2 20.9,12.8 "/>
<path fill="#F7941E" d="M14.5,8.5V2.9C7.1,3.4,1.1,9.4,0.6,16.8h5.6C6.7,12.5,10.2,9,14.5,8.5z"/>
<path fill="#F7941E" d="M25.2,35.7v5.6c7.4-0.5,13.4-6.5,13.9-13.9h-5.6C32.9,31.8,29.5,35.2,25.2,35.7z"/>
<path fill="#F7941E" d="M48,9.7L48.1,9c0.4-1.8,1.6-2.6,3.5-2.6h5h0.6c1.6,0.3,2.6,1.2,2.8,2.8v0.6v2.9l-8.3,3.1v0.2
	c0,0.3,0.1,0.5,0.2,0.7c0.1,0.2,0.3,0.3,0.5,0.3H60v3.7h-8c-0.6,0-1,0-1.3-0.1c-0.3-0.1-0.6-0.2-0.8-0.3c-0.6-0.4-1.1-0.8-1.4-1.3
	c-0.3-0.5-0.4-1.2-0.4-2L48,9.7L48,9.7z M56.2,10.9l0-0.1c-0.1-0.3-0.3-0.5-0.7-0.6h-0.2h-2.6l-0.4,0.1c-0.3,0.1-0.6,0.2-0.7,0.5
	l-0.1,0.4l0,1.5L56.2,10.9z"/>
<path fill="#F7941E" d="M62.3,9.8c0-0.8,0.2-1.5,0.5-2c0.3-0.5,0.7-0.9,1.2-1.1c0.4-0.2,1-0.3,1.7-0.3h2.8c1.4,0,2.4,0.4,2.9,1.3
	c0.5-0.9,1.4-1.3,2.9-1.3h2.8c1.2,0,2.2,0.5,2.9,1.5c0.3,0.5,0.5,1.2,0.5,1.9v10.9h-3.7l0-9.6c0-0.4-0.1-0.6-0.3-0.8
	C76.2,10.1,76,10,75.6,10H74l-0.4,0.1c-0.4,0.1-0.6,0.4-0.6,0.9v9.8h-3.7v-9.8c0-0.5-0.3-0.8-0.8-0.9h-0.2h-1.6
	c-0.6,0-0.9,0.3-1,0.9v0.2v9.6h-3.6L62.3,9.8L62.3,9.8z"/>
<path fill="#F7941E" d="M82.3,2.7C82.3,2,82.6,1.5,83,1c0.2-0.2,0.5-0.4,0.7-0.5c0.3-0.1,0.6-0.2,0.9-0.2c0.7,0,1.2,0.2,1.6,0.7
	c0.2,0.2,0.4,0.5,0.5,0.7c0.1,0.3,0.2,0.6,0.2,0.9c0,0.6-0.2,1.1-0.7,1.6c-0.5,0.5-1,0.7-1.6,0.7c-0.6,0-1.1-0.2-1.6-0.7
	C82.6,3.8,82.3,3.3,82.3,2.7z M82.8,20.7h3.6V6.3h-3.6V20.7z"/>
<path fill="#F7941E" d="M88.9,20.7v-11V9.1c0.1-0.9,0.5-1.6,1-2.1c0.6-0.5,1.3-0.7,2.4-0.7h5.1c2,0,3.1,0.9,3.4,2.8v0.7v11h-3.7V11
	v-0.2c-0.1-0.5-0.5-0.8-1.2-0.8h-2.3c-0.7,0-1.1,0.3-1.2,0.8V11v9.7H88.9z"/>
<path fill="#F7941E" d="M103.4,9.7l0.1-0.7c0.4-1.8,1.6-2.6,3.5-2.6h5h0.6c1.6,0.3,2.6,1.2,2.8,2.8v0.6v2.9l-8.3,3.1v0.2
	c0,0.3,0.1,0.5,0.2,0.7c0.1,0.2,0.3,0.3,0.5,0.3h7.6v3.7h-8c-0.6,0-1,0-1.3-0.1c-0.3-0.1-0.6-0.2-0.8-0.3c-0.6-0.4-1.1-0.8-1.4-1.3
	c-0.3-0.5-0.4-1.2-0.4-2L103.4,9.7L103.4,9.7z M111.6,10.9l0-0.1c-0.1-0.3-0.3-0.5-0.7-0.6h-0.2h-2.6l-0.4,0.1
	c-0.3,0.1-0.6,0.2-0.7,0.5l-0.1,0.4l0,1.5L111.6,10.9z"/>
<path fill="#F7941E" d="M117.7,20.7v-11V9.1c0.1-0.9,0.5-1.6,1-2.1c0.6-0.5,1.3-0.7,2.4-0.7h5.1c2,0,3.1,0.9,3.4,2.8v0.7v11H126V11
	v-0.2c-0.1-0.5-0.5-0.8-1.2-0.8h-2.3c-0.7,0-1.1,0.3-1.2,0.8V11v9.7H117.7z"/>
<path fill="#F7941E" d="M132.1,20.7V1h3.7v5.4h2.5V10h-2.5v10.7C135.8,20.7,132.1,20.7,132.1,20.7z"/>
<path d="M47.9,37.1v-6.9c0-1.8,0.8-2.9,2.3-3.2h0.6h6.3v3.5h-4.7c-0.4,0-0.6,0-0.8,0.1c-0.1,0.1-0.2,0.2-0.3,0.5v0.4v4.8
	c0,0.2,0.1,0.4,0.2,0.6c0.2,0.3,0.4,0.4,0.8,0.4h4.7v3.5h-5.6C49.1,40.6,47.9,39.4,47.9,37.1z"/>
<path d="M60,37.6V30l0.1-0.6c0.3-1.6,1.4-2.4,3.4-2.4h4.6c1.9,0,3,0.8,3.4,2.4c0,0.1,0.1,0.3,0.1,0.6v7.5c0,0.3,0,0.5-0.1,0.6
	c-0.4,1.6-1.5,2.4-3.4,2.4h-4.6c-1.9,0-3-0.8-3.4-2.4L60,37.6z M63.8,36.9c0.2,0.2,0.3,0.2,0.5,0.2h3.1c0.2,0,0.4-0.1,0.6-0.4
	c0.1-0.2,0.2-0.4,0.2-0.6v-4.8c0-0.3-0.1-0.5-0.3-0.7c-0.2-0.2-0.4-0.3-0.5-0.3h-3.1c-0.2,0-0.3,0.1-0.5,0.3
	c-0.2,0.2-0.3,0.4-0.3,0.7v4.8C63.5,36.5,63.6,36.7,63.8,36.9z"/>
<path d="M74.8,37.2v-6.8v-0.6c0.1-0.7,0.4-1.3,0.8-1.8c0.4-0.5,1-0.8,1.6-0.9l0.7-0.1h5v-5.1h3.4v15.1c0,0.7-0.1,1.2-0.2,1.6
	c-0.1,0.4-0.3,0.7-0.6,1c-0.6,0.7-1.5,1.1-2.6,1.1H78c-0.6,0-1.2-0.1-1.6-0.4C76,40,75.6,39.6,75.3,39C75,38.5,74.8,37.9,74.8,37.2z
	 M82.9,31.4v-0.2c-0.1-0.3-0.2-0.5-0.3-0.6c-0.2-0.2-0.4-0.3-0.6-0.3h-2.7c-0.3,0-0.5,0.1-0.7,0.2c-0.2,0.1-0.3,0.3-0.3,0.6v0.2v5
	v0.3c0.1,0.3,0.3,0.4,0.6,0.5h0.2H82h0.2c0.5-0.1,0.7-0.2,0.7-0.5V31.4z"/>
<path d="M89.7,30.2l0.1-0.7c0.4-1.7,1.5-2.5,3.3-2.5h4.7h0.6c1.6,0.3,2.4,1.2,2.6,2.7v0.6V33l-7.9,3v0.2c0,0.3,0.1,0.5,0.2,0.7
	c0.1,0.2,0.3,0.3,0.5,0.3h7.2v3.5h-7.6c-0.6,0-1,0-1.3-0.1c-0.3-0.1-0.5-0.2-0.8-0.3c-0.6-0.3-1-0.7-1.3-1.2
	c-0.3-0.5-0.4-1.1-0.4-1.9L89.7,30.2L89.7,30.2z M97.6,31.3l0-0.1c-0.1-0.3-0.3-0.5-0.7-0.5h-0.2h-2.4l-0.4,0.1
	c-0.3,0.1-0.5,0.2-0.7,0.5l-0.1,0.4l0,1.4L97.6,31.3z"/>
<path d="M104.3,30.5c0-2.3,1.2-3.5,3.5-3.5h2.3v3.5h-1.3h-0.2c-0.6,0.1-0.9,0.3-0.9,0.7v0.4v9h-3.5L104.3,30.5L104.3,30.5z"/>
<path d="M112.2,40.6v-3.5h6h0.2c0.4-0.1,0.6-0.2,0.7-0.5v-0.2v-0.3l-0.1-0.3c-0.1-0.2-0.3-0.3-0.5-0.4h-0.4h-2.6
	c-0.6,0-1.1-0.1-1.5-0.4c-1.2-0.6-1.7-1.5-1.7-2.5v-2.5c0-0.3,0-0.6,0.1-0.8c0.4-1.5,1.5-2.3,3.3-2.3h7l0,3.5h-5.9h-0.3l-0.3,0.1
	l-0.1,0.1c-0.2,0.2-0.3,0.3-0.3,0.5v0.3c0,0.1,0,0.1,0,0.1c0,0.1,0.1,0.2,0.2,0.3c0.1,0.1,0.3,0.2,0.6,0.2h0.2h2.9
	c0.9,0,1.6,0.3,2.1,1c0.6,0.7,0.9,1.4,0.9,2v2.5c0,0.6-0.2,1.1-0.5,1.6c-0.4,0.5-0.7,0.9-1.1,1.1c-0.4,0.2-0.9,0.3-1.6,0.3H112.2z"
	/>
<rect x="128" y="27" fill="#A7A9AC" width="10.2" height="2.9"/>
<rect x="128" y="32.3" fill="#A7A9AC" width="10.2" height="2.9"/>
<rect x="128" y="37.7" fill="#A7A9AC" width="10.2" height="2.9"/>
</svg>
