<?xml version="1.0" encoding="utf-8"?>
<!-- Generator: Adobe Illustrator 26.4.1, SVG Export Plug-In . SVG Version: 6.00 Build 0)  -->
<svg version="1.1" id="Layer_1" xmlns="http://www.w3.org/2000/svg" xmlns:xlink="http://www.w3.org/1999/xlink" x="0px" y="0px"
	 width="63.3px" height="62.1px" viewBox="0 0 63.3 62.1" style="enable-background:new 0 0 63.3 62.1;" xml:space="preserve">
<style type="text/css">
	.st0{fill:#221F20;stroke:#000000;stroke-miterlimit:10;}
</style>
<g>
	<path class="st0" d="M59.6,55.5C59.6,55.5,59.6,55.5,59.6,55.5H4.1c-0.3,0-0.5-0.2-0.5-0.5c0-15.6,12.7-28.3,28.4-28.3
		c7.5,0,14.6,2.9,20,8.3c5.4,5.3,8.3,12.4,8.3,19.9c0,0,0,0,0,0.1C60.2,55.3,59.9,55.5,59.6,55.5z M4.6,54.4h54.5
		c-0.3-14.8-12.4-26.7-27.2-26.7C17,27.7,4.9,39.7,4.6,54.4z"/>
</g>
<g>
	<path class="st0" d="M59.7,59.5H3.6c-0.3,0-0.5-0.2-0.5-0.5s0.2-0.5,0.5-0.5h56.1c0.3,0,0.5,0.2,0.5,0.5S60,59.5,59.7,59.5z"/>
</g>
<g>
	<path class="st0" d="M49,42.5c-0.2,0-0.4-0.1-0.5-0.3c-3.6-5.9-10.1-9.6-17-9.6c-0.3,0-0.5-0.2-0.5-0.5s0.2-0.5,0.5-0.5
		c3.6,0,7.2,1,10.4,2.8c3.1,1.8,5.7,4.3,7.5,7.3c0.2,0.2,0.1,0.6-0.2,0.7C49.2,42.5,49.1,42.5,49,42.5z"/>
</g>
<g>
	<path class="st0" d="M31.3,27.1c-3,0-5.4-2.4-5.4-5.4c0-3,2.4-5.4,5.4-5.4c3,0,5.4,2.4,5.4,5.4c0,1.5-0.6,2.9-1.6,3.9
		C34.1,26.5,32.7,27.1,31.3,27.1z M31.3,17.3c-2.4,0-4.3,1.9-4.3,4.3c0,2.5,1.9,4.4,4.3,4.4c2.5,0,4.4-1.9,4.4-4.4
		C35.7,19.3,33.7,17.3,31.3,17.3z"/>
</g>
<g>
	<path class="st0" d="M12.9,44.5h-2.3c-0.3,0-0.5-0.2-0.5-0.5s0.2-0.5,0.5-0.5h2.3c0.3,0,0.5,0.2,0.5,0.5S13.2,44.5,12.9,44.5z"/>
</g>
<g>
	<path class="st0" d="M14.3,49.2H12c-0.3,0-0.5-0.2-0.5-0.5s0.2-0.5,0.5-0.5h2.3c0.3,0,0.5,0.2,0.5,0.5S14.6,49.2,14.3,49.2z"/>
</g>
<g>
	<path class="st0" d="M19.5,45.6h-2.2c-0.3,0-0.5-0.2-0.5-0.5s0.2-0.5,0.5-0.5h2.2c0.3,0,0.5,0.2,0.5,0.5S19.8,45.6,19.5,45.6z"/>
</g>
<g>
	<path class="st0" d="M22.3,50.7h-2.2c-0.3,0-0.5-0.2-0.5-0.5s0.2-0.5,0.5-0.5h2.2c0.3,0,0.5,0.2,0.5,0.5S22.6,50.7,22.3,50.7z"/>
</g>
<g>
	<path class="st0" d="M17.6,41.3h-2.2c-0.3,0-0.5-0.2-0.5-0.5s0.2-0.5,0.5-0.5h2.2c0.3,0,0.5,0.2,0.5,0.5S17.9,41.3,17.6,41.3z"/>
</g>
<g>
	<path class="st0" d="M24,39.6h-2.3c-0.3,0-0.5-0.2-0.5-0.5s0.2-0.5,0.5-0.5H24c0.3,0,0.5,0.2,0.5,0.5S24.3,39.6,24,39.6z"/>
</g>
<g>
	<path class="st0" d="M26.3,44.5h-2.2c-0.3,0-0.5-0.2-0.5-0.5s0.2-0.5,0.5-0.5h2.2c0.3,0,0.5,0.2,0.5,0.5S26.6,44.5,26.3,44.5z"/>
</g>
<g>
	<path class="st0" d="M27.5,49.1h-2.3c-0.3,0-0.5-0.2-0.5-0.5s0.2-0.5,0.5-0.5h2.3c0.3,0,0.5,0.2,0.5,0.5S27.8,49.1,27.5,49.1z"/>
</g>
<g>
	<path class="st0" d="M20.3,19.9c-0.3,0-0.5-0.2-0.5-0.5v-8.6c0-0.3,0.2-0.5,0.5-0.5s0.5,0.2,0.5,0.5v8.6
		C20.9,19.7,20.6,19.9,20.3,19.9z"/>
</g>
<g>
	<path class="st0" d="M40,17.7c-0.3,0-0.5-0.2-0.5-0.5V11c0-0.3,0.2-0.5,0.5-0.5s0.5,0.2,0.5,0.5v6.2C40.5,17.4,40.3,17.7,40,17.7z"
		/>
</g>
<g>
	<path class="st0" d="M48.1,26.2c-0.3,0-0.5-0.2-0.5-0.5v-7.3c0-0.3,0.2-0.5,0.5-0.5s0.5,0.2,0.5,0.5v7.3
		C48.6,26,48.4,26.2,48.1,26.2z"/>
</g>
<g>
	<path class="st0" d="M12.2,28.3c-0.3,0-0.5-0.2-0.5-0.5v-8.6c0-0.3,0.2-0.5,0.5-0.5c0.3,0,0.5,0.2,0.5,0.5v8.6
		C12.7,28.1,12.5,28.3,12.2,28.3z"/>
</g>
<g>
	<path class="st0" d="M31.3,10.9c-0.3,0-0.5-0.2-0.5-0.5V3.1c0-0.3,0.2-0.5,0.5-0.5c0.3,0,0.5,0.2,0.5,0.5v7.3
		C31.9,10.7,31.6,10.9,31.3,10.9z"/>
</g>
</svg>
