<?xml version="1.0" encoding="utf-8"?>
<!-- Generator: Adobe Illustrator 24.3.0, SVG Export Plug-In . SVG Version: 6.00 Build 0)  -->
<!DOCTYPE svg PUBLIC "-//W3C//DTD SVG 1.1//EN" "http://www.w3.org/Graphics/SVG/1.1/DTD/svg11.dtd" [
	<!ENTITY ns_extend "http://ns.adobe.com/Extensibility/1.0/">
	<!ENTITY ns_ai "http://ns.adobe.com/AdobeIllustrator/10.0/">
	<!ENTITY ns_graphs "http://ns.adobe.com/Graphs/1.0/">
	<!ENTITY ns_vars "http://ns.adobe.com/Variables/1.0/">
	<!ENTITY ns_imrep "http://ns.adobe.com/ImageReplacement/1.0/">
	<!ENTITY ns_sfw "http://ns.adobe.com/SaveForWeb/1.0/">
	<!ENTITY ns_custom "http://ns.adobe.com/GenericCustomNamespace/1.0/">
	<!ENTITY ns_adobe_xpath "http://ns.adobe.com/XPath/1.0/">
]>
<svg version="1.1" id="Layer_1" xmlns:x="&ns_extend;" xmlns:i="&ns_ai;" xmlns:graph="&ns_graphs;"
	 xmlns="http://www.w3.org/2000/svg" xmlns:xlink="http://www.w3.org/1999/xlink" x="0px" y="0px" viewBox="0 0 56.7 56.7"
	 style="enable-background:new 0 0 56.7 56.7;" xml:space="preserve">
<style type="text/css">
	.st0{fill:#F99A28;}
</style>
<metadata>
	<sfw  xmlns="&ns_sfw;">
		<slices></slices>
		<sliceSourceBounds  bottomLeftOrigin="true" height="49" width="34.8" x="10.9" y="2.3"></sliceSourceBounds>
	</sfw>
</metadata>
<polygon class="st0" points="16.4,9.8 18.4,9.8 18.4,12 20.6,12 20.6,5.4 18.4,5.4 18.4,7.6 16.4,7.6 16.4,5.4 14.1,5.4 14.1,12 
	16.4,12 "/>
<polygon class="st0" points="23.5,12 25.7,12 25.7,7.6 27.7,7.6 27.7,5.4 21.6,5.4 21.6,7.6 23.5,7.6 "/>
<polygon class="st0" points="30.8,8.7 32.3,11.1 32.4,11.1 33.9,8.7 33.9,12 36.1,12 36.1,5.4 33.8,5.4 32.4,7.7 31,5.4 28.6,5.4 
	28.6,12 30.8,12 "/>
<polygon class="st0" points="42.5,9.8 39.4,9.8 39.4,5.4 37.2,5.4 37.2,12 42.5,12 "/>
<path class="st0" d="M10.9,14.9l3.2,35.5l14.2,3.9l14.2-3.9l3.2-35.5C45.7,14.9,10.9,14.9,10.9,14.9z M38.9,26.5H28.3h-6.2l0.4,4.5
	h5.8h10.1l-1.2,13.4l-8.9,2.5l0,0l-8.9-2.5l-0.6-7h4.4l0.3,3.6l4.9,1.3l0,0l0,0l4.9-1.3l0.5-5.7h-5.4l0,0h-9.7l-1.2-13.2h10.9h10.9
	L38.9,26.5z"/>
</svg>
