<?xml version="1.0" encoding="utf-8"?>
<!-- Generator: Adobe Illustrator 26.4.1, SVG Export Plug-In . SVG Version: 6.00 Build 0)  -->
<svg version="1.1" id="Layer_1" xmlns="http://www.w3.org/2000/svg" xmlns:xlink="http://www.w3.org/1999/xlink" x="0px" y="0px"
	 width="61.5px" height="61.5px" viewBox="0 0 61.5 61.5" style="enable-background:new 0 0 61.5 61.5;" xml:space="preserve">
<style type="text/css">
	.st0{fill-rule:evenodd;clip-rule:evenodd;fill:#F9CCA0;}
</style>
<path id="Path_3702" class="st0" d="M54.4,18.3c6.6,14.3,1.7,30.6-10.9,36.4s-28.3-1-34.9-15.2S6.8,8.9,19.4,3.1S47.8,4,54.4,18.3z"
	/>
<g id="Group_2780" transform="translate(0 0.556)">
	<path id="Path_3708" class="st0" d="M12.7,24.9c-0.5-1.3-0.1-2-0.1-3.2c0.4-0.2,0.7-0.3,1.1-0.4c0-0.6-0.2-0.8-0.4-1
		c-0.3-0.2-0.5-0.5-0.6-0.8c0.3-0.3,0.5-0.6,0.6-0.9c0.2-0.4,0.3-0.8,0.4-1.2c0.2-0.6,0.4-1.2,0.6-1.7c0.3-0.1,0.4,0.1,0.4,0.3
		c0,0.2,0,0.4,0.1,0.6c0.4-1.4-0.5-1.8,0.5-3.4l0.2,0.1c0.9-2.4,2.6-4.4,4.7-5.7c2.3-1.4,4.9-2.5,7.5-3c-0.4,0-0.3-0.2-0.5-0.4
		c3.1-0.4,6.2-0.2,9.2,0.6c3.1,0.7,6,1.8,8.8,2.6c-1.5-1-3.3-2.7-5.5-3.9c-1.1-0.6-2.2-1-3.4-1.3c-1.1-0.3-2.2-0.3-3.2,0
		c-0.3-0.2-0.7-0.4-1-0.4c-0.4-0.1-0.8-0.1-1.2-0.1c-0.8,0-1.4,0-1.7-0.5c-2.1-0.2-4.3,0.2-6.1,1.3c-1.6,0.9-3,1.9-5,3.1
		c-0.7,0.2-0.7-0.4-1.1-0.7c1-0.9,2.1-1.6,3.3-2.3c-0.8,0.2-1.6,0.4-2.4,0.7c0.2-0.3,0.5-0.5,0.8-0.7c0.4-0.2,0.7-0.4,1.1-0.6
		c0.3-0.2,0.7-0.4,1-0.6c0.2-0.1,0.4-0.4,0.4-0.7c-1.6,1.1-3.7,2.2-5.6,3.6C14,5.7,12.5,7.4,12,9c1.1-1,2.2-2.4,3.6-3.4
		c0.4-0.1,0.9-0.3,1.3-0.3c0.4-0.1,0.7-0.1,0.8,0.2c-1.6,1.8-2.9,3.4-4.2,5C12.1,12.1,11,14,10.3,16C10,17.1,9.4,18.6,9,18.6
		c0-0.8-0.5-0.3-0.5-1c-0.1,0.5,0.2,1,0.7,1.3c0.3,0.2,0.5,0.5,0.2,1.6c-0.5-0.2-1-0.4-1.5-0.7C8.5,20.5,8.3,21.2,8,22
		c-0.3,0.8-0.6,1.8-0.2,2.7c-0.7,0.6-1.1-0.6-1-2c-0.4,1.6,0.5,1.8,0.5,3c-0.5-0.4-0.9-0.8-1.4-1.2c0.3,0.3,0.4,0.6,0.5,1
		c0,0.3,0,0.6-0.2,0.9c-0.3,0.5-0.8,1-1,1.5c0.2,0,0.5-0.1,0.8-0.1c0.3,0,0.6,0.3,0.6,1.1c-0.1,0.7-0.5,0.4-0.7,0.6
		c0.4,0.1,1.1,0.6,1.3,1.7c-0.4,0.3-0.8-0.6-1.3-0.6c0.1,0.4,0.2,0.8,0.2,1.2c0.1,0.4,0,0.7-0.1,1.1c0.7,1.4,0.6-0.2,1.4,0.5
		c0.1,1.1-0.2,1.3-0.7,1.3c-0.5,0-1.1-0.1-1.5,0.4c-1.2-1.6-1.8-4-2.3-5c0.3,1.2,0.6,2.4,1,3.6c-0.3,0-0.4,0.6-0.5,1.1
		c-0.1,0.5-0.3,0.7-0.8-0.2c0.3,2,1,4,2,5.8c1,1.8,2.1,3.4,3.4,4.9c-0.1-0.5-0.4-1.2,0-1.2c1.3,1.4,0.6,1.6,0.5,2.1
		c1.1,0.9,1.8,0.2,2.9,0.4c0.2,0.5,0.5,1.1,0.8,1.5c0.2,0.4,0.5,0.7,0.7,1c0.2,0.3,0.4,0.7,0.6,1c0.3,0.5,0.5,1,0.7,1.5l0.5-0.8
		c0.2,0.6,0.7,1,1.4,1.2c0.6,0.1,1.2,0.5,1.6,1c0,0.2-0.8,0-1.3-0.1c1.5,0.7,0.7,1.6,2.3,2.1C18,54.9,17.5,55,16.9,55
		c1.1,0.7,3,1.4,1.9,1.8c1.3,0.1,2.8,0.7,4.4,1.2c1.5,0.6,3.1,0.9,4.7,1l-0.4,0.8c0.5-0.2,1.1-0.2,1.6-0.1c0.6,0,1.3,0.1,2,0.2
		c0.3,0,0.7,0.1,1,0.1c0.3,0,0.6,0,0.9,0c0.5,0,1-0.2,1.4-0.5l0.2,0.3c1-0.4,1.9-0.8,2.8-1.3c0.5-0.1,1,0.2,1.1,0.7c0,0,0,0.1,0,0.1
		c2.9-0.7,5-1.7,6.9-2.1c0-0.4,0.2-0.7,0.4-1c0.3-0.4,0.7-0.8,1-1.1c0.8-0.8,1.9-1.6,2.7-2.4c2.3-1.7,4.3-3.8,5.8-6.3
		c0.7-1.2,1.4-2.5,1.9-3.9c0.5-1.3,0.9-2.7,1.1-4.1c0.2-1.4,0.4-2.8,0.4-4.2c0-1.4,0-2.7-0.2-4.1c-0.3-2.6-1-5.1-2-7.4
		c-0.3-0.8-0.8-1.5-1.4-2.1c-0.3-0.3-0.7-0.7-1-1c-0.4-0.3-0.7-0.7-1-1c0.2,0.7,0.5,1.4,0.9,2c0.4,0.6,0.7,1.3,0.9,2
		c0.1,0.7-0.1,1.4-0.4,2c-0.3,0.6-0.6,1.2-0.9,1.8c0.3-0.3,0.5-0.5,0.8-0.8c0.6,0.9,0.5,1.3,0.4,1.6s-0.1,0.5,0.5,1.3l-1.5,0.1
		c0.2,0.1,0.3,0.3,0.4,0.5c0.1,0.2,0.1,0.5,0,0.7c-0.1,0.5-0.3,0.9-0.5,1.3c0.3,0.2,0.7,0.3,1,0.5c-0.6,1.2-0.9,2-1.9,2.3l1,0
		c-0.3,0.2-0.4,1.4-0.7,2.2c-0.3,0.9-0.7,1.5-1.3,0.6c0.1,0.4,0.5,0.8,0.2,1.5L51,37.8c-0.1,1.1-0.3,2.2-1,2.2
		c0-0.5-0.2-0.9-0.6-1.2c-0.4,0.9-0.5,1.5-0.4,1.9c0.1,0.4,0.4,0.7,0.7,1c0.3,0.2,0.6,0.6,0.8,0.9c0.1,0.4,0,1-0.5,1.9l-0.5-0.4
		c0,0.4,0,0.8-0.1,1.2c-0.4,0.1-0.8,0.3-1.3,0.3c0.4,1.2-0.7,2.3-2,3.1c-1.3,0.9-2.9,1.4-3.7,2.5c-0.2,0.1-0.5,0.2-0.8,0.2
		c-0.3,0-0.7,0-1,0c-0.4,0-0.7,0-1.1,0c-0.4,0-0.8,0.1-1.2,0.2l0.3,0.9c-0.8-0.3-2.6-0.3-4.3-0.9c-1.7-0.5-3.1-1.4-3.5-2.6
		c-1.3,0.5,0.1,0.2-0.1,1c-0.3,0.1-0.6,0.1-0.9,0.1c-0.2,0-0.4,0-0.6-0.1c-0.3-0.1-0.6-0.3-0.8-0.5c-0.4-0.4-0.6-1.1-1-1.5
		c-0.8-0.1-0.5,0.1-0.2,0.4s0.7,0.5,0.2,0.7c-0.6-0.5-1.4-0.8-2.1-0.6c-0.6,0-1.4,0-2.5-1.1c0-0.6,0.8,0.1,1.3-0.1
		c-1.1-0.1-2.5-0.9-3.7-1.9c-1.2-1.1-2.4-2.3-3.5-3.6c-1-1.9-1.9-3.8-2.6-5.9c-0.7-2.1-1-4.3-0.9-6.5l-0.4,0
		c0.1-0.4,0.2-0.9,0.2-1.3c0-0.4,0-0.9-0.1-1.3C13,25.8,13,24.9,13.2,24C13,24.3,12.8,24.6,12.7,24.9z"/>
</g>
</svg>
