<svg xmlns="http://www.w3.org/2000/svg" xmlns:xlink="http://www.w3.org/1999/xlink" x="0px" y="0px" width="27.5px" height="27.5px" viewBox="0 0 27.5 27.5" style="enable-background:new 0 0 27.5 27.5;" xml:space="preserve">
<path style="fill:#F7941E;" d="M13.7,24.8c-6.1,0-11-4.9-11-11c0-6.1,4.9-11,11-11c2.5,0,4.8,0.9,6.7,2.3c0,1.1,0.9,2,2,2  c1.4,1.9,2.3,4.2,2.3,6.7C24.8,19.8,19.8,24.8,13.7,24.8z M24.3,6.2c0.3-0.4,0.5-0.9,0.5-1.4c0-1.2-0.9-2.2-2.2-2.2 c-0.5,0-1,0.2-1.4,0.5c-2.1-1.5-4.7-2.4-7.5-2.4c-7.1,0-13,5.8-13,13c0,7.2,5.8,13,13,13s13-5.8,13-13C26.7,10.9,25.8,8.3,24.3,6.2  L24.3,6.2z"></path>
<path style="fill:#F7941E;" d="M19.7,13.7c0,3.3-2.7,6-6,6s-6-2.7-6-6s2.7-6,6-6S19.7,10.4,19.7,13.7"></path>
</svg>