<svg xmlns="http://www.w3.org/2000/svg" xmlns:xlink="http://www.w3.org/1999/xlink" x="0px" y="0px" width="33.4px" height="29.5px" viewBox="0 0 33.4 29.5" style="enable-background:new 0 0 33.4 29.5;" xml:space="preserve">
    <path style="fill:#F7941E;" d="M7.1,27.8c-0.5,1-1.8,1.3-2.7,0.7c-1-0.5-1.3-1.8-0.7-2.7L5,23.4c1.6-0.5,2.9-0.1,4,1.1L7.1,27.8z M20.9,22.5H2.8	c-1.1,0-2-0.9-2-2s0.9-2,2-2h5.1l6.5-11.3l-2-3.5c-0.5-1-0.2-2.2,0.7-2.7c1-0.5,2.2-0.2,2.7,0.7l0.9,1.5l0.9-1.5	c0.5-1,1.8-1.3,2.7-0.7c1,0.5,1.3,1.8,0.7,2.7l-8.6,14.8h6.2C20.7,18.5,21.8,20.8,20.9,22.5L20.9,22.5z M30.7,22.5h-2.9l2,3.4	c0.5,1,0.2,2.2-0.7,2.7c-1,0.5-2.2,0.2-2.7-0.7c-3.3-5.7-5.7-9.9-7.4-12.8c-1.7-2.9-0.5-5.8,0.7-6.8c1.3,2.3,3.3,5.7,5.9,10.2h5.2	c1.1,0,2,0.9,2,2C32.7,21.6,31.8,22.5,30.7,22.5L30.7,22.5z"></path>
</svg>