<?xml version="1.0" encoding="utf-8"?>
<!-- Generator: Adobe Illustrator 24.3.0, SVG Export Plug-In . SVG Version: 6.00 Build 0)  -->
<!DOCTYPE svg PUBLIC "-//W3C//DTD SVG 1.1//EN" "http://www.w3.org/Graphics/SVG/1.1/DTD/svg11.dtd" [
	<!ENTITY ns_extend "http://ns.adobe.com/Extensibility/1.0/">
	<!ENTITY ns_ai "http://ns.adobe.com/AdobeIllustrator/10.0/">
	<!ENTITY ns_graphs "http://ns.adobe.com/Graphs/1.0/">
	<!ENTITY ns_vars "http://ns.adobe.com/Variables/1.0/">
	<!ENTITY ns_imrep "http://ns.adobe.com/ImageReplacement/1.0/">
	<!ENTITY ns_sfw "http://ns.adobe.com/SaveForWeb/1.0/">
	<!ENTITY ns_custom "http://ns.adobe.com/GenericCustomNamespace/1.0/">
	<!ENTITY ns_adobe_xpath "http://ns.adobe.com/XPath/1.0/">
]>
<svg version="1.1" id="Layer_1" xmlns:x="&ns_extend;" xmlns:i="&ns_ai;" xmlns:graph="&ns_graphs;"
	 xmlns="http://www.w3.org/2000/svg" xmlns:xlink="http://www.w3.org/1999/xlink" x="0px" y="0px" viewBox="0 0 56.7 56.7"
	 style="enable-background:new 0 0 56.7 56.7;" xml:space="preserve">
<style type="text/css">
	.st0{fill:#2684FF;}
	.st1{fill:url(#SVGID_1_);}
	.st2{fill:url(#SVGID_2_);}
</style>
<metadata>
	<sfw  xmlns="&ns_sfw;">
		<slices></slices>
		<sliceSourceBounds  bottomLeftOrigin="true" height="48.7" width="47.1" x="4.8" y="4"></sliceSourceBounds>
	</sfw>
</metadata>
<g transform="matrix(6.249587 0 0 6.249587 -228.82126 -169.26286)">
	<path class="st0" d="M44.8,31.4l-3.7-3.7l-3.7,3.7c-0.1,0.1-0.1,0.3,0,0.4l3.7,3.7l3.7-3.7C44.9,31.7,44.9,31.5,44.8,31.4
		L44.8,31.4z M41.2,32.8L40,31.6l1.2-1.2l1.2,1.2L41.2,32.8z"/>
	
		<linearGradient id="SVGID_1_" gradientUnits="userSpaceOnUse" x1="-81.9678" y1="100.3575" x2="-83.5748" y2="98.7505" gradientTransform="matrix(6.2496 0 0 -6.2496 553.2089 656.4974)">
		<stop  offset="0.18" style="stop-color:#0052CC"/>
		<stop  offset="1" style="stop-color:#2684FF"/>
	</linearGradient>
	<path class="st1" d="M41.2,30.5c-0.8-0.8-0.8-2,0-2.7l-2.5,2.5l1.4,1.4L41.2,30.5z"/>
	
		<linearGradient id="SVGID_2_" gradientUnits="userSpaceOnUse" x1="-81.8997" y1="99.6187" x2="-80.2957" y2="101.2227" gradientTransform="matrix(6.2496 0 0 -6.2496 553.2089 656.4974)">
		<stop  offset="0.18" style="stop-color:#0052CC"/>
		<stop  offset="1" style="stop-color:#2684FF"/>
	</linearGradient>
	<path class="st2" d="M42.3,31.6l-1.2,1.2c0.8,0.8,0.8,2,0,2.7c0,0,0,0,0,0l2.5-2.5L42.3,31.6z"/>
</g>
</svg>
