<?xml version="1.0" encoding="utf-8"?>
<!-- Generator: Adobe Illustrator 26.4.1, SVG Export Plug-In . SVG Version: 6.00 Build 0)  -->
<svg version="1.1" id="Layer_1" xmlns="http://www.w3.org/2000/svg" xmlns:xlink="http://www.w3.org/1999/xlink" x="0px" y="0px"
	 width="87.6px" height="87.6px" viewBox="0 0 87.6 87.6" enable-background="new 0 0 87.6 87.6" xml:space="preserve">
<path d="M83.7,21.3c0,0,0-0.1,0-0.1c0-0.1-0.1-0.1-0.1-0.2c0,0-0.1-0.1-0.1-0.1c0-0.1-0.1-0.1-0.1-0.2c0,0-0.1-0.1-0.1-0.1
	c0,0-0.1-0.1-0.1-0.1l-15.5-8.9c-0.4-0.2-0.9-0.2-1.3,0l-15.5,8.9l0,0c0,0-0.1,0.1-0.1,0.1c0,0-0.1,0.1-0.1,0.1c0,0-0.1,0.1-0.1,0.1
	c0,0-0.1,0.1-0.1,0.1c0,0.1-0.1,0.1-0.1,0.2c0,0,0,0.1,0,0.1c0,0.1,0,0.2,0,0.3v16.9l-12.9,7.4V12.8c0-0.1,0-0.2,0-0.3
	c0,0,0-0.1,0-0.1c0-0.1-0.1-0.1-0.1-0.2c0,0-0.1-0.1-0.1-0.1c0-0.1-0.1-0.1-0.1-0.2c0,0-0.1-0.1-0.1-0.1c0,0-0.1-0.1-0.1-0.1l0,0
	L21.2,2.8c-0.4-0.2-0.9-0.2-1.3,0L4.5,11.7l0,0c-0.1,0-0.1,0.1-0.1,0.1c0,0-0.1,0.1-0.1,0.1c0,0-0.1,0.1-0.1,0.1
	c0,0-0.1,0.1-0.1,0.1c0,0.1-0.1,0.1-0.1,0.2c0,0,0,0.1,0,0.1c0,0.1,0,0.2,0,0.3v53c0,0.5,0.2,0.9,0.6,1.1l30.9,17.8
	c0.1,0,0.1,0.1,0.2,0.1c0,0,0.1,0,0.1,0c0.2,0.1,0.4,0.1,0.7,0c0,0,0.1,0,0.1,0c0.1,0,0.2-0.1,0.2-0.1l31-17.8
	c0.4-0.2,0.6-0.7,0.6-1.1V48.9l14.8-8.5c0.4-0.2,0.6-0.7,0.6-1.1V21.6C83.8,21.5,83.8,21.4,83.7,21.3z M20.6,5.4L20.6,5.4l12.9,7.4
	l-12.9,7.4L7.7,12.8L20.6,5.4z M34.8,15.1v32.4l-7.5,4.3l-5.4,3.1V22.5l7.5-4.3L34.8,15.1z M34.8,81.4L6.4,65.1v-50l5.4,3.1l7.5,4.3
	v34.6c0,0,0,0.1,0,0.1c0,0.1,0,0.1,0,0.2l0,0c0,0,0,0.1,0.1,0.1c0,0.1,0,0.1,0.1,0.2l0,0c0,0,0.1,0.1,0.1,0.1c0,0,0.1,0.1,0.1,0.1
	l0,0c0,0,0.1,0.1,0.1,0.1c0,0,0.1,0.1,0.1,0.1l0,0l0,0l14.8,8.4L34.8,81.4z M36.1,64.4l-12.9-7.3l13.5-7.8l14.8-8.5l12.9,7.4
	L55,53.6L36.1,64.4z M65.7,65.1L37.4,81.4V66.6l21-12l7.4-4.2V65.1z M65.7,45.9l-5.4-3.1l-7.5-4.3V23.8l5.4,3.1l7.5,4.3V45.9z
	 M67,29l-12.9-7.4L67,14.2l12.9,7.4L67,29z M68.3,45.9V31.3l7.5-4.3l5.4-3.1v14.7l0,0L68.3,45.9z"/>
</svg>
