<?xml version="1.0" encoding="UTF-8"?>
<!-- Generator: Adobe Illustrator 26.4.1, SVG Export Plug-In . SVG Version: 6.00 Build 0)  -->
<svg xmlns="http://www.w3.org/2000/svg" xmlns:xlink="http://www.w3.org/1999/xlink" version="1.1" id="Layer_1" x="0px" y="0px" width="63.3px" height="62.1px" viewBox="0 0 63.3 62.1" style="enable-background:new 0 0 63.3 62.1;" xml:space="preserve">
<g>
	<path d="M12.1,44.2c0.1,0.1,0.3,0.2,0.5,0.2h6.6c0.2,0,0.3-0.1,0.5-0.2l0,0c0.1-0.1,0.2-0.3,0.2-0.5V32c0-0.4-0.3-0.7-0.7-0.7h-6.7   c-0.4,0-0.7,0.3-0.7,0.7v11.8C11.9,43.9,12,44.1,12.1,44.2L12.1,44.2z M13.2,32.6h5.3v10.5h-5.3V32.6z"></path>
	<path d="M27.7,44.2c0.1,0.1,0.3,0.2,0.5,0.2h6.6c0.2,0,0.3-0.1,0.5-0.2l0,0c0.1-0.1,0.2-0.3,0.2-0.5V32c0-0.4-0.3-0.7-0.7-0.7h-6.7   c-0.4,0-0.7,0.3-0.7,0.7v11.8C27.5,43.9,27.6,44.1,27.7,44.2L27.7,44.2z M28.8,32.6h5.3v10.5h-5.3L28.8,32.6L28.8,32.6z"></path>
	<path d="M43.3,44.2c0.1,0.1,0.3,0.2,0.5,0.2h6.6c0.2,0,0.3-0.1,0.5-0.2l0,0c0.1-0.1,0.2-0.3,0.2-0.5V32c0-0.4-0.3-0.7-0.7-0.7h-6.7   c-0.4,0-0.7,0.3-0.7,0.7v11.8C43.1,43.9,43.1,44.1,43.3,44.2L43.3,44.2z M44.4,32.6h5.3v10.5h-5.3V32.6z"></path>
	<path d="M54.9,45.9h-2c0.5-0.6,0.8-1.3,0.8-2.2V32c0-1.6-0.6-3.2-1.8-4.4c-1-1-1.4-1.6-1.4-2.8v-1c0-0.4-0.3-0.7-0.7-0.7h-5.7   c-0.4,0-0.7,0.3-0.7,0.7v1c0,1.2-0.4,1.8-1.4,2.8c-1.1,1.2-1.8,2.7-1.8,4.4v11.8c0,0.8,0.3,1.6,0.8,2.2h-3.8   c0.5-0.6,0.8-1.3,0.8-2.2V32c0-1.6-0.6-3.2-1.8-4.4c-1-1-1.4-1.6-1.4-2.8v-1c0-0.4-0.3-0.7-0.7-0.7h-5.7c-0.4,0-0.7,0.3-0.7,0.7v1   c0,1.2-0.4,1.8-1.4,2.8c-1.1,1.2-1.8,2.7-1.8,4.4v11.8c0,0.8,0.3,1.6,0.8,2.2h-3.8c0.5-0.6,0.8-1.3,0.8-2.2V32   c0-1.6-0.6-3.2-1.8-4.4c-1-1-1.4-1.6-1.4-2.8v-0.4c0.3-0.1,0.6-0.3,0.6-0.7v-2.4c0-0.9-0.7-1.7-1.7-1.7h-4.8   c-0.9,0-1.7,0.7-1.7,1.7v2.4c0,0.3,0.2,0.6,0.6,0.7v0.4c0,1.2-0.4,1.8-1.4,2.8c-1.1,1.2-1.8,2.7-1.8,4.4v11.8   c0,0.8,0.3,1.6,0.8,2.2H8.4c-2.8,0-5.1,2.3-5.1,5.1c0,2.8,2.3,5.1,5.1,5.1h46.5c2.8,0,5.1-2.3,5.1-5.1C60,48.2,57.7,45.9,54.9,45.9   z M41.7,32c0-1.3,0.5-2.5,1.4-3.4c1-1.1,1.8-2,1.8-3.7v-0.3h4.3v0.3c0,1.7,0.7,2.6,1.8,3.7c0.9,0.9,1.4,2.2,1.4,3.4v11.8   c0,1.1-0.9,2-2,2h-6.6c-1.1,0-2-0.9-2-2V32z M26.2,32c0-1.3,0.5-2.5,1.4-3.4c1-1.1,1.8-2,1.8-3.7v-0.3h4.3v0.3   c0,1.7,0.7,2.6,1.8,3.7c0.9,0.9,1.4,2.2,1.4,3.4v11.8c0,1.1-0.9,2-2,2h-6.6c-1.1,0-2-0.9-2-2L26.2,32L26.2,32z M13.2,21.4   c0-0.2,0.1-0.3,0.3-0.3h4.8c0.2,0,0.3,0.1,0.3,0.3v1.7h-5.4V21.4z M10.6,32c0-1.3,0.5-2.5,1.4-3.4c1-1.1,1.8-2,1.8-3.7v-0.3h4.3   v0.3c0,1.7,0.7,2.6,1.8,3.7c0.9,0.9,1.4,2.2,1.4,3.4v11.8c0,1.1-0.9,2-2,2h-6.6c-1.1,0-2-0.9-2-2C10.6,43.8,10.6,32,10.6,32z    M54.9,54.7H8.4c-2.1,0-3.7-1.7-3.7-3.7c0-2.1,1.7-3.7,3.7-3.7h46.5c2.1,0,3.7,1.7,3.7,3.7S57,54.7,54.9,54.7z"></path>
	<path d="M11.5,48.8c-1.2,0-2.2,1-2.2,2.2c0,1.2,1,2.2,2.2,2.2s2.2-1,2.2-2.2C13.7,49.8,12.7,48.8,11.5,48.8z M11.5,51.9   c-0.5,0-0.9-0.4-0.9-0.9c0-0.5,0.4-0.9,0.9-0.9c0.5,0,0.9,0.4,0.9,0.9C12.4,51.5,12,51.9,11.5,51.9z"></path>
	<path d="M24.8,48.8c-1.2,0-2.2,1-2.2,2.2c0,1.2,1,2.2,2.2,2.2s2.2-1,2.2-2.2C27,49.8,26,48.8,24.8,48.8z M24.8,51.9   c-0.5,0-0.9-0.4-0.9-0.9c0-0.5,0.4-0.9,0.9-0.9c0.5,0,0.9,0.4,0.9,0.9C25.7,51.5,25.3,51.9,24.8,51.9z"></path>
	<path d="M38.1,48.8c-1.2,0-2.2,1-2.2,2.2c0,1.2,1,2.2,2.2,2.2c1.2,0,2.2-1,2.2-2.2C40.4,49.8,39.4,48.8,38.1,48.8z M38.1,51.9   c-0.5,0-0.9-0.4-0.9-0.9c0-0.5,0.4-0.9,0.9-0.9S39,50.5,39,51C39,51.5,38.6,51.9,38.1,51.9z"></path>
	<path d="M51.5,48.8c-1.2,0-2.2,1-2.2,2.2c0,1.2,1,2.2,2.2,2.2c1.2,0,2.2-1,2.2-2.2C53.7,49.8,52.7,48.8,51.5,48.8z M51.5,51.9   c-0.5,0-0.9-0.4-0.9-0.9c0-0.5,0.4-0.9,0.9-0.9c0.5,0,0.9,0.4,0.9,0.9C52.4,51.5,52,51.9,51.5,51.9z"></path>
	<path d="M30.8,10.4V14h-1.7c-0.4,0-0.7,0.3-0.7,0.7V18c-0.6,0.3-1,0.8-1,1.5v2.4c0,0.4,0.3,0.7,0.7,0.7h6.8c0.4,0,0.7-0.3,0.7-0.7   v-2.4c0-0.7-0.4-1.3-1.1-1.6v-3.3c0-0.4-0.3-0.7-0.7-0.7h-1.7v-3.6c0.9-0.3,1.6-1.1,1.6-2.1c0-1.2-1-2.2-2.2-2.2   c-0.9,0-1.7,0.6-2.1,1.4H11.9v1.3h17.4C29.5,9.6,30,10.2,30.8,10.4z M34.2,21.3h-5.4v-1.7c0-0.2,0.1-0.3,0.3-0.3h4.8   c0.2,0,0.3,0.1,0.3,0.3L34.2,21.3L34.2,21.3z M33.1,17.8h-3.4v-2.4h3.4V17.8z M31.4,7.4c0.5,0,0.9,0.4,0.9,0.9s-0.4,0.9-0.9,0.9   c-0.5,0-0.9-0.4-0.9-0.9C30.6,7.8,31,7.4,31.4,7.4z"></path>
</g>
</svg>
