<svg xmlns="http://www.w3.org/2000/svg" width="26px" height="58px" viewBox="0 0 26 58">
                <path fill-rule="evenodd" fill="#333333" d="M25.326,10.185 C25.523,10.870 25.817,12.436 25.817,12.731 L25.817,29.083 C25.227,37.014 18.933,41.322 12.934,41.322 C8.410,41.322 3.001,38.776 0.838,32.804 C0.542,32.020 0.247,30.454 0.247,30.257 L0.247,11.752 C1.526,4.211 7.427,0.687 12.934,0.687 C17.851,0.687 23.457,3.429 25.326,10.185 ZM22.965,10.478 C23.162,11.066 23.457,12.436 23.457,12.731 L23.457,29.181 C22.769,35.546 17.655,38.972 12.934,38.972 C7.034,38.972 2.509,33.880 2.509,28.985 L2.509,13.025 C3.001,6.464 8.017,3.037 12.934,3.037 C16.966,3.037 21.195,5.093 22.965,10.478 Z"></path>
                <path fill-rule="evenodd" fill="#f7941e" d="M14.250,9.597 L14.250,14.788 C13.955,15.178 13.365,15.766 13.069,15.766 C12.578,15.766 11.988,15.178 11.988,14.885 L11.988,9.597 C12.185,8.913 12.578,8.813 13.069,8.813 C13.561,8.813 14.250,9.206 14.250,9.597 Z"></path>
                <path fill-rule="evenodd" fill="#f7941e" d="M4.317,46.316 C7.169,49.059 10.119,52.094 13.069,55.031 C16.020,52.191 18.872,49.156 21.921,46.316 C22.019,46.120 22.315,46.218 22.511,46.218 C23.200,46.218 23.691,46.610 23.691,47.294 C23.691,47.980 23.298,48.079 22.315,49.156 C19.463,51.995 16.610,54.835 13.758,57.577 C13.561,57.773 13.365,57.871 13.069,57.871 C12.381,57.871 11.890,57.087 11.201,56.401 C8.251,53.562 5.399,50.723 2.645,47.883 C2.449,47.687 2.547,47.492 2.547,47.197 C2.547,46.316 2.940,46.218 3.629,46.218 C3.825,46.218 4.121,46.120 4.317,46.316 Z"></path>
            </svg>