<?xml version="1.0" encoding="UTF-8"?>
<!-- Generator: Adobe Illustrator 26.4.1, SVG Export Plug-In . SVG Version: 6.00 Build 0)  -->
<svg xmlns="http://www.w3.org/2000/svg" xmlns:xlink="http://www.w3.org/1999/xlink" version="1.1" id="Layer_1" x="0px" y="0px" width="93.2px" height="27.6px" viewBox="0 0 93.2 27.6" style="enable-background:new 0 0 93.2 27.6;" xml:space="preserve">
<style type="text/css">
	.st0{fill:#333333;}
	.st1{fill:#80BD01;}
</style>
<path class="st0" d="M15,14.6c0-0.3-0.1-0.5-0.4-0.6l-6.1-3.5c-0.1-0.1-0.2-0.1-0.3-0.1c0,0-0.1,0-0.1,0c-0.1,0-0.2,0-0.3,0.1  l-6.1,3.5c-0.2,0.1-0.4,0.4-0.4,0.6l0,9.4c0,0.1,0.1,0.3,0.2,0.3c0.1,0.1,0.3,0.1,0.4,0l3.6-2.1C5.8,22.1,6,21.9,6,21.6v-4.4  c0-0.3,0.1-0.5,0.4-0.6l1.5-0.9c0.1-0.1,0.2-0.1,0.4-0.1c0.1,0,0.3,0,0.4,0.1l1.5,0.9c0.2,0.1,0.4,0.4,0.4,0.6v4.4  c0,0.3,0.1,0.5,0.4,0.6l3.6,2.1c0.1,0.1,0.3,0.1,0.4,0c0.1-0.1,0.2-0.2,0.2-0.3L15,14.6z"></path>
<path class="st0" d="M47.4,1.7c-0.1-0.1-0.3-0.1-0.4,0c-0.1,0.1-0.2,0.2-0.2,0.3v9.3c0,0.1,0,0.2-0.1,0.2c-0.1,0-0.2,0-0.3,0  l-1.5-0.9c-0.2-0.1-0.5-0.1-0.7,0l-6.1,3.5c-0.2,0.1-0.4,0.4-0.4,0.6v7c0,0.3,0.1,0.5,0.4,0.6l6.1,3.5c0.2,0.1,0.5,0.1,0.7,0  l6.1-3.5c0.2-0.1,0.4-0.4,0.4-0.6V4.3c0-0.3-0.1-0.5-0.4-0.6L47.4,1.7z M46.8,19.5c0,0.1,0,0.1-0.1,0.2l-2.1,1.2c-0.1,0-0.1,0-0.2,0  l-2.1-1.2c-0.1,0-0.1-0.1-0.1-0.2v-2.4c0-0.1,0-0.1,0.1-0.2l2.1-1.2c0.1,0,0.1,0,0.2,0l2.1,1.2c0.1,0,0.1,0.1,0.1,0.2L46.8,19.5  L46.8,19.5z"></path>
<path class="st0" d="M69.1,17c0.2-0.1,0.4-0.4,0.4-0.6v-1.7c0-0.3-0.1-0.5-0.4-0.6l-6-3.5c-0.2-0.1-0.5-0.1-0.7,0L56.3,14  c-0.2,0.1-0.4,0.4-0.4,0.6v7c0,0.3,0.1,0.5,0.4,0.6l6,3.4c0.2,0.1,0.5,0.1,0.7,0l3.6-2c0.1-0.1,0.2-0.2,0.2-0.3  c0-0.1-0.1-0.3-0.2-0.3l-6.1-3.5c-0.1-0.1-0.2-0.2-0.2-0.3v-2.2c0-0.1,0.1-0.3,0.2-0.3l1.9-1.1c0.1-0.1,0.3-0.1,0.4,0l1.9,1.1  c0.1,0.1,0.2,0.2,0.2,0.3v1.7c0,0.1,0.1,0.3,0.2,0.3c0.1,0.1,0.3,0.1,0.4,0L69.1,17z"></path>
<path class="st1" d="M26,10.5c0.2-0.1,0.5-0.1,0.7,0l6.1,3.5c0.2,0.1,0.4,0.4,0.4,0.6v7c0,0.3-0.1,0.5-0.4,0.6l-6.1,3.5  c-0.2,0.1-0.5,0.1-0.7,0L20,22.3c-0.2-0.1-0.4-0.4-0.4-0.6v-7c0-0.3,0.1-0.5,0.4-0.6L26,10.5z"></path>
<path class="st1" d="M80.8,25.9c-0.2,0-0.4-0.1-0.6-0.2l-1.9-1.1c-0.3-0.2-0.1-0.2-0.1-0.2c0.4-0.1,0.5-0.2,0.9-0.4c0,0,0.1,0,0.1,0  l1.5,0.9c0.1,0,0.1,0,0.2,0l5.7-3.3c0.1,0,0.1-0.1,0.1-0.2v-6.6c0-0.1,0-0.1-0.1-0.2l-5.7-3.3c-0.1,0-0.1,0-0.2,0L75,14.6  c-0.1,0-0.1,0.1-0.1,0.2v6.6c0,0.1,0,0.1,0.1,0.2l1.6,0.9c0.8,0.4,1.4-0.1,1.4-0.6v-6.5c0-0.1,0.1-0.2,0.2-0.2h0.7  c0.1,0,0.2,0.1,0.2,0.2v6.5c0,1.1-0.6,1.8-1.7,1.8c-0.3,0-0.6,0-1.3-0.4l-1.5-0.9c-0.4-0.2-0.6-0.6-0.6-1v-6.6c0-0.4,0.2-0.8,0.6-1  l5.7-3.3c0.4-0.2,0.8-0.2,1.2,0l5.7,3.3c0.4,0.2,0.6,0.6,0.6,1v6.6c0,0.4-0.2,0.8-0.6,1l-5.7,3.3C81.3,25.8,81.1,25.9,80.8,25.9z"></path>
<path class="st1" d="M82.6,21.3c-2.5,0-3-1.1-3-2.1c0-0.1,0.1-0.2,0.2-0.2h0.7c0.1,0,0.2,0.1,0.2,0.1c0.1,0.8,0.4,1.1,2,1.1  c1.2,0,1.7-0.3,1.7-0.9c0-0.4-0.1-0.6-2-0.8c-1.6-0.2-2.5-0.5-2.5-1.8c0-1.2,1-1.8,2.6-1.8c1.8,0,2.7,0.6,2.9,2c0,0,0,0.1,0,0.1  c0,0-0.1,0.1-0.1,0.1h-0.7c-0.1,0-0.1-0.1-0.2-0.1c-0.2-0.8-0.6-1-1.8-1c-1.3,0-1.5,0.5-1.5,0.8c0,0.4,0.2,0.5,2,0.8  c1.8,0.2,2.6,0.6,2.6,1.8C85.5,20.6,84.4,21.3,82.6,21.3z"></path>
<path class="st1" d="M62.6,16.7c0,0,0.1,0,0.1,0l1.2,0.7c0,0,0.1,0.1,0.1,0.1v1.3c0,0.1,0,0.1-0.1,0.1l-1.2,0.7c0,0-0.1,0-0.1,0  l-1.2-0.7c0,0-0.1-0.1-0.1-0.1v-1.3c0-0.1,0-0.1,0.1-0.1L62.6,16.7z"></path>
<g>
	<path class="st1" d="M91.7,12.2c0,0.6-0.5,1.1-1.1,1.1c-0.6,0-1.1-0.5-1.1-1.1c0-0.6,0.5-1.1,1.1-1.1   C91.2,11.1,91.7,11.6,91.7,12.2z M89.7,12.2c0,0.5,0.4,0.9,0.9,0.9c0.5,0,0.9-0.4,0.9-0.9c0-0.5-0.4-0.9-0.9-0.9   C90.1,11.3,89.7,11.7,89.7,12.2z M90.2,11.6h0.4c0.1,0,0.4,0,0.4,0.3c0,0.2-0.1,0.3-0.2,0.3c0.2,0,0.2,0.1,0.2,0.3   c0,0.1,0,0.3,0.1,0.3h-0.3c0-0.1,0-0.4,0-0.4c0-0.1,0-0.1-0.1-0.1h-0.2v0.5h-0.2L90.2,11.6L90.2,11.6z M90.4,12.1h0.2   c0.2,0,0.2-0.1,0.2-0.2c0-0.2-0.1-0.2-0.2-0.2h-0.2L90.4,12.1C90.4,12.1,90.4,12.1,90.4,12.1z"></path>
</g>
</svg>
