<?xml version="1.0" encoding="utf-8"?>
<!-- Generator: Adobe Illustrator 24.3.0, SVG Export Plug-In . SVG Version: 6.00 Build 0)  -->
<!DOCTYPE svg PUBLIC "-//W3C//DTD SVG 1.1//EN" "http://www.w3.org/Graphics/SVG/1.1/DTD/svg11.dtd" [
	<!ENTITY ns_extend "http://ns.adobe.com/Extensibility/1.0/">
	<!ENTITY ns_ai "http://ns.adobe.com/AdobeIllustrator/10.0/">
	<!ENTITY ns_graphs "http://ns.adobe.com/Graphs/1.0/">
	<!ENTITY ns_vars "http://ns.adobe.com/Variables/1.0/">
	<!ENTITY ns_imrep "http://ns.adobe.com/ImageReplacement/1.0/">
	<!ENTITY ns_sfw "http://ns.adobe.com/SaveForWeb/1.0/">
	<!ENTITY ns_custom "http://ns.adobe.com/GenericCustomNamespace/1.0/">
	<!ENTITY ns_adobe_xpath "http://ns.adobe.com/XPath/1.0/">
]>
<svg version="1.1" id="Layer_1" xmlns:x="&ns_extend;" xmlns:i="&ns_ai;" xmlns:graph="&ns_graphs;"
	 xmlns="http://www.w3.org/2000/svg" xmlns:xlink="http://www.w3.org/1999/xlink" x="0px" y="0px" viewBox="0 0 56.7 56.7"
	 style="enable-background:new 0 0 56.7 56.7;" xml:space="preserve">
<style type="text/css">
	.st0{clip-path:url(#SVGID_2_);}
	.st1{fill:url(#path3462_1_);}
	.st2{clip-path:url(#SVGID_4_);}
	.st3{fill:#777BB3;}
	.st4{clip-path:url(#SVGID_6_);}
	.st5{fill:#FFFFFF;}
</style>
<metadata>
	<sfw  xmlns="&ns_sfw;">
		<slices></slices>
		<sliceSourceBounds  bottomLeftOrigin="true" height="28.8" width="51.2" x="2.7" y="13.9"></sliceSourceBounds>
	</sfw>
</metadata>
<g id="g3438" transform="matrix(1.25,0,0,-1.25,-4.4,394.29875)">
	<g id="g3440">
		<g>
			<defs>
				<path id="SVGID_1_" d="M6.5,292.8c0-5.7,8.8-10.4,19.7-10.4l0,0c10.9,0,19.7,4.6,19.7,10.4l0,0c0,5.7-8.8,10.4-19.7,10.4l0,0
					C15.3,303.1,6.5,298.5,6.5,292.8"/>
			</defs>
			<clipPath id="SVGID_2_">
				<use xlink:href="#SVGID_1_"  style="overflow:visible;"/>
			</clipPath>
			<g id="g3442" class="st0">
				<g id="g3448">
					<g id="g3450">
						
							<radialGradient id="path3462_1_" cx="-739.9896" cy="-138.9553" r="7.117721e-02" gradientTransform="matrix(453.8224 0 0 -453.8224 335842.1562 -62761.5664)" gradientUnits="userSpaceOnUse">
							<stop  offset="0" style="stop-color:#AEB2D5"/>
							<stop  offset="0.3" style="stop-color:#AEB2D5"/>
							<stop  offset="0.75" style="stop-color:#484C89"/>
							<stop  offset="1" style="stop-color:#484C89"/>
						</radialGradient>
						<path id="path3462" class="st1" d="M6.5,292.8c0-5.7,8.8-10.4,19.7-10.4l0,0c10.9,0,19.7,4.6,19.7,10.4l0,0
							c0,5.7-8.8,10.4-19.7,10.4l0,0C15.3,303.1,6.5,298.5,6.5,292.8"/>
					</g>
				</g>
			</g>
		</g>
	</g>
	<g id="g3464">
		<g>
			<defs>
				<rect id="SVGID_3_" x="0.6" y="278.3" width="51.2" height="28.8"/>
			</defs>
			<clipPath id="SVGID_4_">
				<use xlink:href="#SVGID_3_"  style="overflow:visible;"/>
			</clipPath>
			<g id="g3466" class="st2">
				<g id="g3472" transform="translate(288,27.3594)">
					<path id="path3474" class="st3" d="M-261.8,255.8c10.4,0,18.9,4.3,18.9,9.6c0,5.3-8.5,9.6-18.9,9.6c-10.4,0-18.9-4.3-18.9-9.6
						C-280.7,260.1-272.2,255.8-261.8,255.8"/>
				</g>
			</g>
		</g>
	</g>
	<g id="g3476">
		<g>
			<defs>
				<rect id="SVGID_5_" x="0.6" y="278.3" width="51.2" height="28.8"/>
			</defs>
			<clipPath id="SVGID_6_">
				<use xlink:href="#SVGID_5_"  style="overflow:visible;"/>
			</clipPath>
			<g id="g3478" class="st4">
				<g id="g3484" transform="translate(161.7344,145.3066)">
					<path id="path3486" d="M-144.5,146.3c0.9,0,1.5,0.2,1.9,0.5c0.4,0.3,0.7,0.8,0.8,1.6c0.1,0.7,0.1,1.2-0.2,1.4
						c-0.2,0.3-0.8,0.4-1.6,0.4h-1.4l-0.8-3.9H-144.5z M-149,141.4c-0.1,0-0.1,0-0.2,0.1c0,0-0.1,0.1,0,0.2l2,10.4
						c0,0.1,0.1,0.2,0.2,0.2h4.3c1.4,0,2.4-0.4,3-1.1c0.6-0.7,0.8-1.8,0.6-3.1c-0.1-0.5-0.3-1-0.5-1.5c-0.2-0.4-0.6-0.8-1-1.2
						c-0.5-0.4-1-0.8-1.6-0.9c-0.6-0.2-1.3-0.3-2.2-0.3h-1.8l-0.5-2.6c0-0.1-0.1-0.2-0.2-0.2H-149z"/>
				</g>
				<g id="g3488" transform="translate(159.2236,197.3071)">
					<path id="path3490" class="st5" d="M-142.2,98h1.2c1,0,1.3-0.2,1.4-0.3c0.2-0.2,0.2-0.6,0.1-1.3c-0.1-0.7-0.4-1.2-0.7-1.5
						c-0.4-0.3-1-0.4-1.8-0.4h-0.9L-142.2,98z M-140.1,100.5h-4.3c-0.2,0-0.4-0.1-0.4-0.3l-2-10.4c0-0.1,0-0.3,0.1-0.4
						c0.1-0.1,0.2-0.2,0.3-0.2h2.3c0.2,0,0.4,0.1,0.4,0.3l0.5,2.4h1.6c0.9,0,1.6,0.1,2.2,0.3c0.6,0.2,1.2,0.5,1.7,1
						c0.4,0.4,0.7,0.8,1,1.3c0.3,0.5,0.4,1,0.5,1.5c0.3,1.4,0,2.4-0.6,3.2C-137.6,100.1-138.7,100.5-140.1,100.5 M-143.4,94.1h1.4
						c0.9,0,1.6,0.2,2,0.5c0.4,0.3,0.7,0.9,0.9,1.7c0.1,0.8,0.1,1.3-0.2,1.6c-0.3,0.3-0.9,0.5-1.7,0.5h-1.5L-143.4,94.1 M-140.1,100
						c1.3,0,2.3-0.3,2.9-1c0.6-0.7,0.8-1.6,0.5-2.9c-0.1-0.5-0.3-1-0.5-1.4c-0.2-0.4-0.5-0.8-0.9-1.2c-0.5-0.4-1-0.7-1.5-0.9
						c-0.6-0.2-1.3-0.3-2.1-0.3h-1.9l-0.5-2.8h-2.3l2,10.4H-140.1"/>
				</g>
				<g id="g3492" transform="translate(311.583,116.3066)">
					<path id="path3494" d="M-283.7,173.2c-0.1,0-0.1,0-0.2,0.1c0,0-0.1,0.1,0,0.2l0.9,4.6c0.1,0.4,0.1,0.7-0.1,0.9
						c-0.1,0.1-0.3,0.2-1,0.2h-1.6l-1.1-5.8c0-0.1-0.1-0.2-0.2-0.2h-2.2c-0.1,0-0.1,0-0.2,0.1c0,0-0.1,0.1,0,0.2l2,10.4
						c0,0.1,0.1,0.2,0.2,0.2h2.2c0.1,0,0.1,0,0.2-0.1c0,0,0.1-0.1,0-0.2l-0.5-2.5h1.7c1.3,0,2.2-0.2,2.7-0.7
						c0.5-0.5,0.7-1.3,0.5-2.3l-0.9-4.8c0-0.1-0.1-0.2-0.2-0.2H-283.7z"/>
				</g>
				<g id="g3496" transform="translate(293.6611,271.0571)">
					<path id="path3498" class="st5" d="M-267.1,29.5h-2.2c-0.2,0-0.4-0.1-0.4-0.3l-2-10.4c0-0.1,0-0.3,0.1-0.4
						c0.1-0.1,0.2-0.2,0.3-0.2h2.2c0.2,0,0.4,0.1,0.4,0.3l1.1,5.6h1.4c0.7,0,0.8-0.1,0.8-0.1c0,0,0.1-0.2,0-0.7l-0.9-4.6
						c0-0.1,0-0.3,0.1-0.4c0.1-0.1,0.2-0.2,0.3-0.2h2.3c0.2,0,0.4,0.1,0.4,0.3l0.9,4.8c0.2,1.1,0,2-0.6,2.5
						c-0.6,0.5-1.5,0.8-2.9,0.8h-1.5l0.4,2.2c0,0.1,0,0.3-0.1,0.4C-266.8,29.4-266.9,29.5-267.1,29.5 M-267.1,29l-0.5-2.8h2
						c1.3,0,2.1-0.2,2.6-0.7c0.5-0.4,0.6-1.1,0.4-2.1l-0.9-4.8h-2.3l0.9,4.6c0.1,0.5,0.1,0.9-0.1,1.1c-0.2,0.2-0.6,0.3-1.1,0.3h-1.8
						l-1.2-5.9h-2.2l2,10.4H-267.1"/>
				</g>
				<g id="g3500" transform="translate(409.5498,145.3066)">
					<path id="path3502" d="M-374.7,146.3c0.9,0,1.5,0.2,1.9,0.5c0.4,0.3,0.7,0.8,0.8,1.6c0.1,0.7,0.1,1.2-0.2,1.4
						c-0.2,0.3-0.8,0.4-1.6,0.4h-1.4l-0.8-3.9H-374.7z M-379.2,141.4c-0.1,0-0.1,0-0.2,0.1c0,0-0.1,0.1,0,0.2l2,10.4
						c0,0.1,0.1,0.2,0.2,0.2h4.3c1.4,0,2.4-0.4,3-1.1c0.6-0.7,0.8-1.8,0.6-3.1c-0.1-0.5-0.3-1-0.5-1.5c-0.2-0.4-0.6-0.8-1-1.2
						c-0.5-0.4-1-0.8-1.6-0.9c-0.6-0.2-1.3-0.3-2.2-0.3h-1.8l-0.5-2.6c0-0.1-0.1-0.2-0.2-0.2H-379.2z"/>
				</g>
				<g id="g3504" transform="translate(407.0391,197.3071)">
					<path id="path3506" class="st5" d="M-372.4,98h1.2c1,0,1.3-0.2,1.4-0.3c0.2-0.2,0.2-0.6,0.1-1.3c-0.1-0.7-0.4-1.2-0.7-1.5
						c-0.4-0.3-1-0.4-1.8-0.4h-0.9L-372.4,98z M-370.3,100.5h-4.3c-0.2,0-0.4-0.1-0.4-0.3l-2-10.4c0-0.1,0-0.3,0.1-0.4
						c0.1-0.1,0.2-0.2,0.3-0.2h2.3c0.2,0,0.4,0.1,0.4,0.3l0.5,2.4h1.6c0.9,0,1.6,0.1,2.2,0.3c0.6,0.2,1.2,0.5,1.7,1
						c0.4,0.4,0.7,0.8,1,1.3c0.3,0.5,0.4,1,0.5,1.5c0.3,1.4,0,2.4-0.6,3.2C-367.8,100.1-368.9,100.5-370.3,100.5 M-373.6,94.1h1.4
						c0.9,0,1.6,0.2,2,0.5c0.4,0.3,0.7,0.9,0.9,1.7c0.1,0.8,0.1,1.3-0.2,1.6c-0.3,0.3-0.9,0.5-1.7,0.5h-1.5L-373.6,94.1 M-370.3,100
						c1.3,0,2.3-0.3,2.9-1c0.6-0.7,0.8-1.6,0.5-2.9c-0.1-0.5-0.3-1-0.5-1.4c-0.2-0.4-0.5-0.8-0.9-1.2c-0.5-0.4-1-0.7-1.5-0.9
						c-0.6-0.2-1.3-0.3-2.1-0.3h-1.9l-0.5-2.8h-2.3l2,10.4H-370.3"/>
				</g>
			</g>
		</g>
	</g>
</g>
</svg>
