<?xml version="1.0" encoding="UTF-8"?>
<!-- Generator: Adobe Illustrator 26.4.1, SVG Export Plug-In . SVG Version: 6.00 Build 0)  -->
<svg xmlns="http://www.w3.org/2000/svg" xmlns:xlink="http://www.w3.org/1999/xlink" version="1.1" id="Layer_1" x="0px" y="0px" width="65.4px" height="65.4px" viewBox="0 0 65.4 65.4" style="enable-background:new 0 0 65.4 65.4;" xml:space="preserve">
<style type="text/css">
	.st0{fill:#00D8FF;}
</style>
<circle class="st0" cx="32.7" cy="32.7" r="5.7"></circle>
<g>
	<path class="st0" d="M32.7,45.6c-7.9,0-14.9-0.9-20.1-2.7c-3.4-1.1-6.2-2.7-8.3-4.4c-2.2-1.8-3.3-3.9-3.3-5.8c0-3.7,4.1-7.4,11-9.8   c5.6-2,13-3.1,20.7-3.1c7.5,0,14.8,1.1,20.4,3c3.3,1.1,6,2.6,8,4.2c2.1,1.8,3.3,3.7,3.3,5.6c0,3.9-4.6,7.8-12,10.3   C47.2,44.7,40.2,45.6,32.7,45.6z M32.7,22.5c-7.3,0-14.5,1.1-19.8,2.9c-6.3,2.2-9.2,5.2-9.2,7.2c0,2.1,3.1,5.4,9.7,7.7   c4.9,1.7,11.6,2.6,19.2,2.6c7.2,0,13.8-0.9,18.8-2.6c6.9-2.3,10.1-5.6,10.1-7.7c0-1.1-0.8-2.3-2.3-3.6c-1.7-1.4-4.2-2.7-7.1-3.7   C46.9,23.5,40,22.5,32.7,22.5z"></path>
</g>
<g>
	<path class="st0" d="M19.9,60.8c-1.1,0-2.2-0.2-3-0.7c-3.2-1.9-4.4-7.3-3-14.4c1.1-5.9,3.8-12.8,7.7-19.4   c3.8-6.5,8.3-12.3,12.8-16.2C37,7.8,39.6,6.2,42,5.3c2.6-1,4.9-1,6.5,0c3.4,1.9,4.5,7.9,2.9,15.5c-1.1,5.4-3.8,11.9-7.5,18.4   c-4,6.9-8.2,12.4-12.4,16c-2.7,2.3-5.4,4.1-8,4.9C22.2,60.6,21,60.8,19.9,60.8z M22.7,27l1.2,0.7c-3.6,6.3-6.3,13.1-7.4,18.6   c-1.3,6.6,0,10.6,1.7,11.6c0.4,0.2,1,0.4,1.7,0.4c2.2,0,5.8-1.4,9.8-5c3.9-3.4,8-8.7,11.8-15.3c3.6-6.2,6.1-12.4,7.2-17.6   c1.5-7.2,0.2-11.6-1.6-12.6c-0.9-0.5-2.4-0.5-4.2,0.2c-2.1,0.8-4.4,2.3-6.8,4.3c-4.2,3.7-8.6,9.2-12.2,15.5L22.7,27z"></path>
</g>
<g>
	<path class="st0" d="M45.6,60.9c-3.1,0-6.9-1.8-11-5.3c-4.5-3.9-9.1-9.7-13-16.4l0,0c-3.8-6.5-6.5-13.3-7.6-19.1   c-0.7-3.4-0.8-6.5-0.4-9c0.5-2.7,1.6-4.7,3.2-5.6c3.4-1.9,9.1,0.1,14.9,5.2c4.1,3.7,8.4,9.2,12.2,15.7c4,6.9,6.6,13.3,7.7,18.7   c0.7,3.5,0.8,6.7,0.3,9.4c-0.5,2.8-1.7,4.8-3.4,5.8C47.7,60.6,46.7,60.9,45.6,60.9z M23.9,37.8c3.6,6.3,8.2,12,12.4,15.7   c5.1,4.4,9.1,5.3,10.9,4.3c1.8-1,3.1-5.3,1.8-12.3c-1-5.1-3.6-11.3-7.4-17.9c-3.6-6.2-7.7-11.5-11.6-15c-5.5-4.9-9.9-6-11.7-4.9   c-0.9,0.5-1.6,1.9-1.9,3.8c-0.4,2.2-0.3,5,0.3,8.1C17.7,25,20.3,31.5,23.9,37.8L23.9,37.8z"></path>
</g>
</svg>
