<?xml version="1.0" encoding="utf-8"?>
<!-- Generator: Adobe Illustrator 26.4.1, SVG Export Plug-In . SVG Version: 6.00 Build 0)  -->
<svg version="1.1" id="Layer_1" xmlns="http://www.w3.org/2000/svg" xmlns:xlink="http://www.w3.org/1999/xlink" x="0px" y="0px"
	 width="63.3px" height="62.1px" viewBox="0 0 63.3 62.1" style="enable-background:new 0 0 63.3 62.1;" xml:space="preserve">
<style type="text/css">
	.st0{fill-rule:evenodd;clip-rule:evenodd;}
</style>
<path class="st0" d="M59.1,30.6c-0.5,0.5-1.3,0.5-1.9,0L45.2,18.5c-0.1-0.1-0.2-0.1-0.2-0.2l-5.2-5.2c-0.1-0.1-0.2-0.1-0.2-0.2
	l-8.4-8.4L5.1,30.6c-0.5,0.5-1.3,0.5-1.9,0c-0.5-0.5-0.5-1.3,0-1.9L30.1,1.8c0-0.1,0.1-0.1,0.1-0.2c0.3-0.3,0.6-0.4,1-0.4
	c0.3,0,0.7,0.1,1,0.4c0.1,0.1,0.1,0.1,0.1,0.2l7,7V5.3l0,0c0-0.7,0.6-1.3,1.3-1.3H46c0.4,0,0.7,0.2,1,0.4c0.2,0.2,0.4,0.6,0.4,1
	v11.6l11.8,11.8C59.6,29.2,59.6,30,59.1,30.6z M44.6,6.6h-2.7v4.9l2.7,2.7V6.6z M12.3,28.2c0.7,0,1.3,0.6,1.3,1.3v25.6
	c0,1.5,1.2,2.7,2.7,2.7h8.1l0,0V40.4c0-0.7,0.6-1.3,1.3-1.3h10.8c0.7,0,1.3,0.6,1.3,1.3v17.5l0,0H46c1.5,0,2.7-1.2,2.7-2.7V29.6
	c0-0.7,0.6-1.3,1.3-1.3c0.7,0,1.3,0.6,1.3,1.3v25.6c0,3-2.4,5.4-5.4,5.4H16.3c-3,0-5.4-2.4-5.4-5.4V29.6
	C10.9,28.8,11.5,28.2,12.3,28.2z M35.2,57.9V41.7h-8.1v16.2l0,0H35.2L35.2,57.9z"/>
</svg>
