<?xml version="1.0" encoding="UTF-8"?>
<!-- Generator: Adobe Illustrator 26.4.1, SVG Export Plug-In . SVG Version: 6.00 Build 0)  -->
<svg xmlns="http://www.w3.org/2000/svg" xmlns:xlink="http://www.w3.org/1999/xlink" version="1.1" id="Layer_1" x="0px" y="0px" width="65.4px" height="65.4px" viewBox="0 0 65.4 65.4" style="enable-background:new 0 0 65.4 65.4;" xml:space="preserve">
<style type="text/css">
	.st0{fill:#FF5722;}
</style>
<g id="_x32_3-swift">
	<g>
		<g>
			<g>
				<path class="st0" d="M40.3,3.9c27,18.1,18.3,38,18.3,38s7.7,8.5,4.6,16c0,0-3.2-5.2-8.5-5.2c-5.1,0-8.1,5.2-18.5,5.2      C13.2,57.8,2.4,39,2.4,39c20.7,13.4,34.8,3.9,34.8,3.9C27.8,37.6,8,12.1,8,12.1c17.3,14.5,24.7,18.2,24.7,18.2      c-4.5-3.6-17-21.3-17-21.3c10,9.9,29.9,23.8,29.9,23.8C51.3,17.6,40.3,3.9,40.3,3.9L40.3,3.9z"></path>
			</g>
		</g>
	</g>
</g>
<g id="Layer_1_00000000922235169177778490000003788225677602200971_">
</g>
</svg>
