<?xml version="1.0" encoding="UTF-8"?>
<!-- Generator: Adobe Illustrator 26.4.1, SVG Export Plug-In . SVG Version: 6.00 Build 0)  -->
<svg xmlns="http://www.w3.org/2000/svg" xmlns:xlink="http://www.w3.org/1999/xlink" version="1.1" id="Layer_1" x="0px" y="0px" width="65.4px" height="65.4px" viewBox="0 0 65.4 65.4" style="enable-background:new 0 0 65.4 65.4;" xml:space="preserve">
<style type="text/css">
	.st0{fill:#21759B;}
</style>
<path class="st0" d="M33.2,34.9l-4.7,13.8h0l-3.7,10.5c0.3,0.1,0.5,0.1,0.8,0.2h0c2.3,0.6,4.7,0.9,7.1,0.9c1.2,0,2.4-0.1,3.6-0.3  c1.6-0.2,3.1-0.5,4.7-1l0,0c0.4-0.1,0.7-0.2,1.1-0.4c-0.4-0.9-1.3-2.8-1.3-2.9L33.2,34.9z"></path>
<path class="st0" d="M7.5,21.9c-1.4,3.2-2.4,7.2-2.4,10.9c0,0.9,0,1.8,0.1,2.7c1,10.2,7.6,18.8,16.7,22.7c0.4,0.2,0.8,0.3,1.2,0.5  L9.7,21.9C8.6,21.8,8.4,21.9,7.5,21.9z"></path>
<path class="st0" d="M57.8,21.1c-0.6-1.3-1.3-2.6-2.2-3.8c-0.2-0.3-0.5-0.7-0.7-1c-3.1-4.2-7.3-7.4-12.2-9.3  c-3.2-1.2-6.5-1.9-10-1.9c-8.4,0-16.3,3.8-21.5,10.3c-0.9,1.2-1.8,2.4-2.5,3.7c2,0,4.6,0,4.9,0c2.6,0,6.6-0.3,6.6-0.3  c1.4-0.1,1.5,1.9,0.2,2c0,0-1.4,0.2-2.8,0.2l9,26.9L32,31.7l-3.9-10.6c-1.4-0.1-2.6-0.2-2.6-0.2c-1.4-0.1-1.2-2.1,0.1-2  c0,0,4.1,0.3,6.5,0.3c2.6,0,6.6-0.3,6.6-0.3c1.3-0.1,1.5,1.9,0.2,2c0,0-1.3,0.2-2.8,0.2l9,26.7l2.5-8.3c1.3-3.2,1.9-5.9,1.9-8  c0-3.1-1.1-5.2-2.1-6.8c-1.3-2.1-2.4-3.8-2.4-5.8c0-2.3,1.7-4.4,4.2-4.4h0.3c3.8-0.1,5,3.6,5.2,6.2v0.1c0.1,1,0,1.8,0,2.7  c0,2.5-0.5,5.3-1.9,8.9l-5.6,16.2L44,57.9c0.3-0.1,0.5-0.2,0.8-0.4c8.2-3.9,14.1-11.8,15.3-21.1c0.2-1.2,0.3-2.5,0.3-3.7  C60.3,28.7,59.5,24.8,57.8,21.1z"></path>
<path class="st0" d="M32.7,2.8c16.5,0,29.9,13.4,29.9,29.9c0,12-7.2,22.9-18.3,27.5c-15.2,6.4-32.8-0.7-39.2-15.9S5.9,11.6,21.1,5.2  C24.8,3.6,28.7,2.8,32.7,2.8 M32.7,0.5C14.9,0.5,0.5,14.9,0.5,32.7s14.4,32.2,32.2,32.2s32.2-14.4,32.2-32.2S50.5,0.5,32.7,0.5z"></path>
</svg>
